<svg width="134" height="121" viewBox="0 0 134 121" fill="none" xmlns="http://www.w3.org/2000/svg">
<path d="M128.673 66.8336C130.941 65.6318 133.785 60.4376 133.785 60.4376C133.785 60.4376 127.835 59.9178 125.567 61.1238C125.344 61.2444 125.163 61.4232 124.953 61.5646C125.26 59.4728 125.466 57.3477 125.55 55.1894C126.973 55.5678 129.022 54.9316 130.507 53.6299C132.439 51.9415 134 46.2442 134 46.2442C134 46.2442 128.092 47.0925 126.16 48.7809C125.921 48.9889 125.756 49.2509 125.546 49.4879C125.411 47.2505 125.125 45.0548 124.747 42.8923C126.203 42.9006 128.012 41.8152 129.152 40.2391C130.642 38.1639 130.852 32.2669 130.852 32.2669C130.852 32.2669 125.289 34.4128 123.8 36.488C123.644 36.7042 123.56 36.9537 123.429 37.1866C122.946 35.4857 122.369 33.8223 121.729 32.1879C123.185 31.9509 124.789 30.5411 125.592 28.7487C126.653 26.4282 125.71 20.6019 125.71 20.6019C125.71 20.6019 120.669 23.7708 119.617 26.0914C119.495 26.3533 119.453 26.6361 119.369 26.9106C118.472 25.1598 117.484 23.4589 116.419 21.8163C117.74 21.2715 118.998 19.6829 119.491 17.8822C120.172 15.4244 118.325 9.81857 118.325 9.81857C118.325 9.81857 113.848 13.7235 113.17 16.1813C113.082 16.4932 113.082 16.8176 113.044 17.1378C111.66 15.4036 110.187 13.7443 108.617 12.1765C109.817 11.3739 110.713 9.49419 110.784 7.58953C110.877 5.0486 107.788 0 107.788 0C107.788 0 104.329 4.81571 104.228 7.35665C104.22 7.64775 104.228 7.94302 104.262 8.22996C102.97 7.17367 101.64 6.16311 100.26 5.21494C99.8856 3.95903 98.8673 2.62411 97.466 1.78822C95.2652 0.478244 89.2983 0.702811 89.2983 0.702811C89.2983 0.702811 91.8736 6.02172 94.0828 7.33585C95.059 7.91806 96.17 8.20917 97.2051 8.27571C98.2571 8.98268 99.3007 9.7146 100.298 10.4923C97.6133 10.7751 93.1991 13.4033 93.1991 13.4033C93.1991 13.4033 98.0636 16.8176 100.639 16.9132C102.612 16.9839 104.607 16.2021 105.47 15.0335C106.53 16.0856 107.532 17.196 108.508 18.3313C105.798 18.0652 101.034 19.5872 101.034 19.5872C101.034 19.5872 104.982 24.0079 107.473 24.6774C109.413 25.1972 111.554 24.8521 112.644 23.8582C113.435 25.06 114.163 26.291 114.849 27.5552C112.282 26.7817 107.081 27.5885 107.081 27.5885C107.081 27.5885 110.284 32.5664 112.632 33.606C114.382 34.3837 116.461 34.4211 117.719 33.7266C118.144 34.812 118.527 35.9182 118.881 37.0369C116.537 35.7602 111.201 35.5564 111.201 35.5564C111.201 35.5564 113.381 41.05 115.481 42.5222C117.063 43.6325 119.125 44.0733 120.505 43.6034C120.766 45.0797 120.968 46.5768 121.115 48.0948C119.028 46.3855 114.109 45.0589 114.109 45.0589C114.109 45.0589 114.971 50.8977 116.684 52.7982C117.951 54.2121 119.823 55.0896 121.267 54.969C121.212 56.4827 121.115 57.9882 120.938 59.4728C119.423 57.2978 114.715 54.7569 114.715 54.7569C114.715 54.7569 114.189 60.6372 115.413 62.8746C116.394 64.6794 118.199 65.9769 119.71 66.0019C119.377 67.316 119.024 68.6302 118.594 69.9069C117.517 67.5447 112.851 64.2802 112.851 64.2802C112.851 64.2802 111.634 70.0607 112.59 72.4228C113.28 74.1653 114.727 75.6167 116.108 75.9951C115.544 77.172 114.967 78.3323 114.323 79.4551C113.713 76.9433 109.737 72.8761 109.737 72.8761C109.737 72.8761 107.452 78.3281 107.936 80.8275C108.281 82.649 109.404 84.3207 110.671 84.9778C109.85 86.0757 109.004 87.1528 108.1 88.1883C108.058 85.6224 104.868 80.7609 104.868 80.7609C104.868 80.7609 101.565 85.6764 101.548 88.2132C101.539 90.1012 102.33 91.9893 103.479 92.8543C102.486 93.7484 101.464 94.6217 100.412 95.4451C100.416 95.3952 100.433 95.3578 100.437 95.3079C100.744 92.7836 98.0972 87.4896 98.0972 87.4896C98.0972 87.4896 94.2427 91.9893 93.9313 94.5094C93.7083 96.2477 94.209 98.0193 95.1137 99.059C93.8093 99.845 92.4837 100.585 91.1119 101.259C91.2508 100.893 91.3728 100.519 91.4486 100.132C91.9409 97.6326 89.6812 92.1723 89.6812 92.1723C89.6812 92.1723 85.5068 96.3933 85.0187 98.8926C84.6779 100.606 85.0524 102.411 85.8772 103.513C83.4744 104.407 80.979 105.097 78.4374 105.667C76.9435 100.801 72.4157 97.2333 67.0084 97.2333C61.5969 97.2333 57.0733 100.793 55.5794 105.667C53.0378 105.106 50.5425 104.407 48.1397 103.513C48.9644 102.407 49.339 100.606 48.9981 98.8926C48.51 96.3891 44.3356 92.1723 44.3356 92.1723C44.3356 92.1723 42.0717 97.6326 42.5683 100.132C42.644 100.519 42.766 100.893 42.9049 101.259C41.5331 100.585 40.2034 99.845 38.9031 99.059C39.7994 98.0193 40.3044 96.2477 40.0855 94.5094C39.7741 91.9893 35.9154 87.4896 35.9154 87.4896C35.9154 87.4896 33.2728 92.7753 33.58 95.3079C33.5842 95.3578 33.601 95.3952 33.6052 95.4451C32.549 94.6217 31.5306 93.7525 30.5376 92.8543C31.6821 91.9893 32.4775 90.0971 32.4648 88.2132C32.4522 85.6681 29.1447 80.7609 29.1447 80.7609C29.1447 80.7609 25.9592 85.6224 25.9172 88.1883C25.0166 87.1528 24.1666 86.0715 23.3461 84.9778C24.6127 84.3207 25.732 82.649 26.0813 80.8275C26.5694 78.3198 24.2802 72.8761 24.2802 72.8761C24.2802 72.8761 20.3037 76.9475 19.6935 79.4551C19.0539 78.3281 18.4732 77.172 17.9135 75.9951C19.298 75.6125 20.7371 74.1653 21.4314 72.4228C22.3824 70.0524 21.1663 64.2802 21.1663 64.2802C21.1663 64.2802 16.4954 67.5406 15.4182 69.9069C14.9889 68.6218 14.6355 67.316 14.3072 66.0019C15.8137 65.9769 17.619 64.6794 18.5994 62.8746C19.824 60.6331 19.3022 54.7569 19.3022 54.7569C19.3022 54.7569 14.585 57.2978 13.0743 59.4728C12.8976 57.9923 12.8008 56.4869 12.7461 54.969C14.1852 55.0896 16.062 54.208 17.3286 52.7982C19.0413 50.8977 19.9039 45.0589 19.9039 45.0589C19.9039 45.0589 14.9889 46.3855 12.8976 48.0948C13.0364 46.581 13.2426 45.0797 13.5077 43.6034C14.8837 44.0733 16.9499 43.6325 18.5321 42.5222C20.6319 41.0542 22.8074 35.5564 22.8074 35.5564C22.8074 35.5564 17.4717 35.7602 15.1278 37.0369C15.4813 35.9141 15.8684 34.812 16.2934 33.7266C17.5558 34.4211 19.6346 34.3795 21.3767 33.606C23.729 32.5705 26.9313 27.5885 26.9313 27.5885C26.9313 27.5885 21.7134 26.7942 19.1423 27.5677C19.8324 26.3034 20.5646 25.0683 21.3515 23.8706C22.4455 24.8604 24.5874 25.2097 26.5273 24.6899C29.0143 24.0203 32.9656 19.5997 32.9656 19.5997C32.9656 19.5997 28.1937 18.0818 25.4879 18.348C26.46 17.2126 27.4615 16.1023 28.5219 15.0501C29.3888 16.2187 31.3876 16.9964 33.3569 16.9299C35.928 16.8384 40.7967 13.42 40.7967 13.42C40.7967 13.42 36.3825 10.7917 33.6978 10.5089C34.6993 9.73123 35.7387 9.00347 36.7949 8.2965C37.8258 8.22996 38.941 7.93886 39.9172 7.35665C42.1222 6.04251 44.6975 0.723605 44.6975 0.723605C44.6975 0.723605 38.7348 0.494879 36.5298 1.80485C35.1285 2.63658 34.1102 3.97567 33.7314 5.22742C32.3512 6.17559 31.0215 7.1903 29.7338 8.24244C29.7591 7.95133 29.7717 7.66023 29.7633 7.36912C29.6665 4.82403 26.2075 0.012476 26.2075 0.012476C26.2075 0.012476 23.1104 5.05692 23.2072 7.60201C23.2787 9.50667 24.1708 11.3864 25.3701 12.1848C23.8047 13.7568 22.3319 15.4161 20.9475 17.1503C20.9054 16.83 20.9054 16.5057 20.8213 16.1938C20.1438 13.736 15.6664 9.83104 15.6664 9.83104C15.6664 9.83104 13.8149 15.4411 14.4966 17.8947C14.9932 19.6995 16.2514 21.2881 17.5769 21.8329C16.5122 23.4756 15.5234 25.1681 14.6271 26.9272C14.5429 26.6528 14.5008 26.37 14.383 26.108C13.3268 23.7875 8.28558 20.6186 8.28558 20.6186C8.28558 20.6186 7.34298 26.4407 8.4034 28.7612C9.21555 30.5494 10.8188 31.9634 12.2664 32.2004C11.631 33.8306 11.0545 35.4941 10.5663 37.1949C10.4359 36.9621 10.3517 36.7125 10.196 36.4963C8.70638 34.417 3.14339 32.2711 3.14339 32.2711C3.14339 32.2711 3.35379 38.1681 4.84763 40.2432C5.9838 41.8152 7.79745 42.9048 9.25342 42.8964C8.86629 45.0589 8.58435 47.2547 8.44969 49.4921C8.2435 49.255 8.07097 48.993 7.83532 48.7851C5.90805 47.0925 0 46.2525 0 46.2525C0 46.2525 1.55697 51.9498 3.48844 53.6382C4.97387 54.9399 7.02318 55.5762 8.44548 55.1977C8.52964 57.3561 8.72742 59.477 9.04302 61.5729C8.83262 61.4315 8.65588 61.2527 8.42865 61.1321C6.16053 59.9219 0.210401 60.4459 0.210401 60.4459C0.210401 60.4459 3.05502 65.6359 5.32314 66.8461C6.94743 67.7069 8.90416 67.8858 10.2129 67.3659C10.6337 69.0044 11.1134 70.6055 11.673 72.19C11.4837 72.0943 11.3238 71.9571 11.126 71.8822C8.73163 70.9465 2.8867 72.1567 2.8867 72.1567C2.8867 72.1567 6.32464 76.9766 8.72321 77.9081C10.5832 78.64 12.7461 78.5277 13.9454 77.6752C14.707 79.2721 15.5276 80.8316 16.4239 82.3495C16.2345 82.2955 16.0409 82.2372 15.8474 82.204C13.3184 81.7257 7.80166 83.9839 7.80166 83.9839C7.80166 83.9839 12.0896 88.0926 14.6228 88.5709C16.6132 88.9451 18.7341 88.4212 19.7356 87.3357C20.817 88.7954 21.9574 90.1969 23.1693 91.5568C23.0052 91.5485 22.8453 91.5235 22.6812 91.5277C20.1059 91.5443 15.1362 94.8171 15.1362 94.8171C15.1362 94.8171 20.1438 98.0235 22.7191 98.0152C24.7053 97.9985 26.6788 97.121 27.4825 95.9026C28.644 96.9589 29.8348 97.9736 31.0762 98.9342C30.9668 98.9425 30.8574 98.9176 30.748 98.9301C28.1895 99.242 23.6406 103.06 23.6406 103.06C23.6406 103.06 28.989 105.675 31.5433 105.363C33.6599 105.106 35.6377 103.866 36.1468 102.436C37.1399 103.043 38.1162 103.688 39.1472 104.241C36.6181 105.28 33.2012 108.578 33.2012 108.578C33.2012 108.578 38.7221 110.795 41.247 110.3C43.2878 109.909 45.1267 108.586 45.5938 107.172C48.6404 108.366 51.8175 109.302 55.0829 109.984C55.5247 116.134 60.6627 121 66.9958 121C73.3289 121 78.4668 116.134 78.9087 109.984C82.1741 109.302 85.3511 108.366 88.402 107.172C88.8606 108.586 90.7037 109.909 92.7446 110.3C95.2736 110.795 100.799 108.561 100.799 108.561C100.799 108.561 97.3819 105.264 94.8528 104.224C95.8838 103.667 96.8601 103.039 97.8532 102.419C98.3623 103.846 100.344 105.093 102.457 105.347C105.011 105.659 110.364 103.043 110.364 103.043C110.364 103.043 105.811 99.2253 103.256 98.9093C103.151 98.9009 103.037 98.9259 102.928 98.9176C104.169 97.9569 105.36 96.9422 106.522 95.8859C107.325 97.1044 109.299 97.9819 111.289 97.9985C113.86 98.0152 118.872 94.8005 118.872 94.8005C118.872 94.8005 113.903 91.5277 111.327 91.511C111.163 91.511 111.003 91.5318 110.839 91.5401C112.051 90.1927 113.191 88.7788 114.273 87.3191C115.274 88.4045 117.395 88.9327 119.386 88.5542C121.919 88.0801 126.207 83.9672 126.207 83.9672C126.207 83.9672 120.69 81.7091 118.161 82.1832C117.967 82.2206 117.774 82.2747 117.585 82.3329C118.481 80.8233 119.301 79.2638 120.063 77.6586C121.258 78.5111 123.421 78.6192 125.285 77.8915C127.684 76.9599 131.122 72.1359 131.122 72.1359C131.122 72.1359 125.277 70.9299 122.882 71.8656C122.685 71.9488 122.525 72.0777 122.335 72.1733C122.895 70.5972 123.371 68.9836 123.796 67.3493C125.092 67.8733 127.044 67.6945 128.673 66.8336Z" fill="#E5E5E5"/>
</svg>
