<svg width="16" height="42" viewBox="0 0 16 42" fill="none" xmlns="http://www.w3.org/2000/svg">
<path d="M0.375 39.0638C2.33333 38.6809 3.64583 38.1277 4.3125 37.4043C5.02083 36.6383 5.375 35.3617 5.375 33.5745L5.4375 6.76596C5.4375 5.40425 5.27083 4.48936 4.9375 4.02128C4.64583 3.55319 4.04167 3.31915 3.125 3.31915L0.5 3.44681L0.375 3.19149L0.8125 0.382978C1.47917 0.382978 2 0.404254 2.375 0.446807L8.25 0.574468C10.125 0.574468 12.5208 0.382979 15.4375 0L15.1875 2.87234C13.4792 3.08511 12.3125 3.44681 11.6875 3.95744C11.1042 4.42553 10.7708 5.2766 10.6875 6.51064C10.4375 11.4894 10.2292 16.7021 10.0625 22.1489C9.89583 27.5532 9.8125 31.5319 9.8125 34.0851C9.8125 35.8298 10 37 10.375 37.5957C10.75 38.1489 11.4792 38.4255 12.5625 38.4255C13.2708 38.4255 14.375 38.3617 15.875 38.234L16 38.4894L15.4375 41.4255C14.8542 41.4255 14.3958 41.4043 14.0625 41.3617C11.1458 41.2766 8.875 41.234 7.25 41.234C5.20833 41.234 2.79167 41.4894 0 42L0.375 39.0638Z" fill="#2D76B9"/>
</svg>
