<svg width="105" height="120" viewBox="0 0 105 120" fill="none" xmlns="http://www.w3.org/2000/svg">
<g clip-path="url(#clip0)">
<path d="M10.05 114.9C10.05 117.5 28.75 119.61 51.81 119.61C74.87 119.61 93.57 117.5 93.57 114.9C93.57 112.3 74.87 110.19 51.81 110.19C28.75 110.19 10.05 112.3 10.05 114.9Z" fill="#9D9D9C"/>
<path d="M76.05 3.98C74.92 3.98 73.81 4.14 72.7 4.41C72.15 4.54 71.86 5.86 71.3 6.04C70.71 6.23 69.87 5.29 69.28 5.52C64.32 7.48 59.1 10.59 52.35 10.59C42.51 10.59 35.94 3.98 28.65 3.98C14.24 3.98 -1.37999 24.54 0.740007 41.04C3.10001 59.44 23.58 114.9 37.71 114.9C44.69 114.9 44.65 101.04 48.22 86.17C49.85 79.37 53.11 78.56 54.74 86.71C57.79 101.98 60.45 114.89 66.98 114.89C81.12 114.89 102 55.82 103.95 41.03C104.66 35.63 103.42 29.79 100.93 24.38C100.81 24.12 99.87 24.16 99.75 23.9C99.5 23.38 100.88 23.03 99.78 22.08C98.23 20.28 90.81 18.81 90.81 18.81C90.81 18.81 80.64 4.14 76.05 3.98Z" fill="#F3FAFF" stroke="#002036" stroke-width="1.0875" stroke-miterlimit="10"/>
<path d="M93.61 27.62C93.61 27.62 98.35 22.97 99.83 22.12C99.82 22.11 99.81 22.1 99.8 22.09C98.25 20.29 90.83 18.82 90.83 18.82C90.83 18.82 80.87 4.48 76.21 4C75.99 4.16 75.74 4.3 75.49 4.42C74.77 5.21 74 5.95 73.2 6.65C73.06 6.86 72.95 7.04 72.86 7.18C72.39 7.94 71.96 8.72 71.51 9.49C71.34 10.25 72.44 16.55 72.44 16.55C72.44 16.55 71.43 18.42 68.91 19.95C68.88 20.44 73.45 19.54 74.12 21.06C75.17 23.46 76.73 24.38 76.73 24.38L83.86 27.06L86.52 25.56L93.61 27.62Z" fill="#CFDCE4"/>
<path opacity="0.5" d="M93.96 28.75C93.63 28.91 93.3 29.06 92.94 29.18C91.66 29.63 89.82 29.4 88.48 29.46C86.99 29.53 85.5 29.68 84.01 29.6C78.14 29.28 72.17 24.72 70.25 19.18C69 15.56 69.45 11.89 71.03 8.67C65.39 10.01 60.22 13.68 55.27 16.37C47.21 20.75 41.28 13.43 34.02 11.46C27.08 9.58 20.67 11.43 16.08 17.17C10.53 24.1 10.44 34.36 12.45 42.63C13.92 48.66 24.35 90.21 31.08 90.76C37.81 91.3 36.47 71 50.38 70.18C58.37 69.71 61.9 73.68 63.08 79.84C64.33 86.36 63.86 92.45 70.87 92.03C77.88 91.61 97.03 61.4 96.51 42.24C96.4 37.87 95.42 33.25 93.96 28.75Z" fill="white"/>
<path d="M70.86 9.05C65.77 10.61 61.06 13.9 56.52 16.36C48.46 20.74 42.53 13.42 35.27 11.45C34.43 11.22 33.59 11.05 32.77 10.93C37.45 16.08 44.38 19.98 51.11 20.69C55.88 21.2 59.84 20.03 64.39 18.74C66.16 18.24 68 17.82 69.84 17.63C69.19 14.66 69.63 11.71 70.86 9.05Z" fill="white"/>
<path d="M92.14 65.37C95.58 57.5 97.95 49.14 97.76 42.23C97.64 37.67 96.57 32.82 95 28.13C94.4 28.56 93.71 28.92 92.95 29.18C91.67 29.63 89.83 29.4 88.49 29.46C88.23 29.47 87.96 29.49 87.7 29.5C90.08 34.07 91.55 39.23 92.39 43.85C93.38 49.32 94.08 54.9 93.25 60.43C92.99 62.12 92.6 63.76 92.14 65.37Z" fill="white"/>
<path d="M38.69 12.88C42.31 15.82 47.02 16.64 51.57 15.83C57.01 14.87 63.04 11.98 65.05 7.33C61.29 8.97 57.22 10.59 52.35 10.59C43.03 10.59 36.63 4.65 29.78 4.03C32.77 6.96 35.41 10.23 38.69 12.88Z" fill="#E6F5FE"/>
<path d="M82.79 86.89C80.13 90.85 72.95 95.86 67.41 94.36C61.97 92.89 61.51 85.25 60.47 80.79C59.98 78.69 59.66 74.99 57.39 73.99C55.12 72.99 52.25 73.16 50.11 74.4C45.81 76.89 42.35 81.98 41.6 86.9C40.9 91.5 40.06 98.03 34.12 98.15C31 98.21 29.4 94.79 27.57 92.67C24.61 89.25 11.38 65.87 1.16 43.72C4.91 64.28 24.2 114.9 37.71 114.9C44.69 114.9 44.65 101.04 48.22 86.17C49.85 79.37 53.11 78.56 54.74 86.71C57.79 101.98 60.45 114.89 66.98 114.89C77.19 114.89 90.93 84.05 98.5 61.36C93.48 71.67 88.62 78.23 82.79 86.89Z" fill="#E6F5FE"/>
<path d="M39.65 42.44C39.65 45.37 37.28 47.74 34.35 47.74C31.42 47.74 29.05 45.37 29.05 42.44C29.05 39.51 31.42 37.14 34.35 37.14C37.28 37.14 39.65 39.51 39.65 42.44Z" fill="#002036"/>
<path d="M37.89 44C37.89 44.86 37.19 45.56 36.33 45.56C35.47 45.56 34.77 44.86 34.77 44C34.77 43.14 35.47 42.44 36.33 42.44C37.19 42.44 37.89 43.14 37.89 44Z" fill="white"/>
<path d="M35.77 41.43C35.77 41.99 35.32 42.44 34.76 42.44C34.2 42.44 33.75 41.99 33.75 41.43C33.75 40.87 34.2 40.42 34.76 40.42C35.32 40.43 35.77 40.88 35.77 41.43Z" fill="white"/>
<path d="M67.54 42.44C67.54 45.37 69.91 47.74 72.84 47.74C75.77 47.74 78.14 45.37 78.14 42.44C78.14 39.51 75.77 37.14 72.84 37.14C69.92 37.14 67.54 39.51 67.54 42.44Z" fill="#002036"/>
<path d="M69.31 44C69.31 44.86 70.01 45.56 70.87 45.56C71.73 45.56 72.43 44.86 72.43 44C72.43 43.14 71.73 42.44 70.87 42.44C70.01 42.44 69.31 43.14 69.31 44Z" fill="white"/>
<path d="M71.43 41.43C71.43 41.99 71.88 42.44 72.44 42.44C73 42.44 73.45 41.99 73.45 41.43C73.45 40.87 73 40.42 72.44 40.42C71.88 40.43 71.43 40.88 71.43 41.43Z" fill="white"/>
<path d="M81.23 34.6C78.15 34.6 72.85 33.12 70.45 31.25" stroke="#002036" stroke-width="1.6312" stroke-miterlimit="10" stroke-linecap="round" stroke-linejoin="round"/>
<path d="M27.66 34.6C30.74 34.6 36.04 33.12 38.44 31.25" stroke="#002036" stroke-width="1.6312" stroke-miterlimit="10" stroke-linecap="round" stroke-linejoin="round"/>
<path d="M61.96 9.2C61.96 9.2 61.66 9.33 61.14 9.55C60.61 9.77 59.88 10.09 59 10.49C58.55 10.69 58.07 10.9 57.55 11.12C57.04 11.35 56.49 11.58 55.91 11.78C55.33 11.98 54.75 12.24 54.13 12.41C53.51 12.59 52.88 12.77 52.25 12.95C51.62 13.13 50.97 13.22 50.34 13.36C49.71 13.47 49.1 13.64 48.48 13.68C47.26 13.79 46.14 13.98 45.16 13.98C43.21 14.01 41.91 14.03 41.91 14.03C41.91 14.03 43.2 13.94 45.14 13.81C46.11 13.75 47.22 13.51 48.42 13.34C49.02 13.27 49.62 13.07 50.24 12.93C50.85 12.76 51.49 12.64 52.09 12.43C52.7 12.22 53.3 12.01 53.9 11.8C54.5 11.6 55.06 11.32 55.61 11.09C56.17 10.86 56.69 10.61 57.19 10.36C57.69 10.11 58.16 9.88 58.59 9.66C59.46 9.21 60.19 8.84 60.7 8.59C61.21 8.34 61.5 8.2 61.5 8.2C61.77 8.07 62.1 8.18 62.23 8.45C62.36 8.72 62.25 9.05 61.98 9.18C61.98 9.19 61.98 9.19 61.96 9.2Z" fill="#002036"/>
<path d="M20.49 10.51C19.63 10.45 18.59 11.23 17.95 11.74C17.05 12.45 16.48 13.27 15.96 14.28C15.93 14.34 16.01 14.39 16.05 14.33C16.59 13.45 17.4 12.71 18.21 12.09C18.92 11.55 19.96 11.34 20.57 10.72C20.65 10.64 20.59 10.52 20.49 10.51Z" fill="#002036"/>
<path d="M21.45 11.3C20.38 11.49 19.2 12.06 18.66 13.05C18.63 13.1 18.69 13.18 18.75 13.14C19.63 12.51 20.56 12.12 21.62 11.93C22.04 11.85 21.86 11.22 21.45 11.3Z" fill="#002036"/>
<path d="M20.4 83.58C19.98 83.04 19.43 82.67 18.97 82.16C18.4 81.54 17.97 80.77 17.81 79.94C17.8 79.89 17.74 79.91 17.73 79.95C17.56 81.46 18.69 83.58 20.35 83.68C20.41 83.7 20.43 83.62 20.4 83.58Z" fill="#002036"/>
<path d="M22.44 82.76C21.64 82.05 20.52 81.76 19.86 80.87C19.82 80.81 19.73 80.85 19.74 80.92C20.02 82.08 21.22 82.88 22.38 82.88C22.45 82.88 22.49 82.81 22.44 82.76Z" fill="#002036"/>
<path d="M87.91 75.53C87.43 76.49 87.26 77.57 86.77 78.54C86.29 79.48 85.6 80.28 85.04 81.17C85.03 81.19 85.05 81.22 85.07 81.21C86.63 80.16 88.32 77.55 88.21 75.61C88.2 75.46 87.98 75.38 87.91 75.53Z" fill="#002036"/>
<path d="M87.06 73.95C87.03 73.86 86.92 73.84 86.86 73.92C86.52 74.42 86.49 75 86.37 75.58C86.25 76.16 86.08 76.78 85.86 77.33C85.79 77.5 86.05 77.58 86.14 77.45C86.78 76.54 87.48 75.07 87.06 73.95Z" fill="#002036"/>
<path d="M79.51 53.63C79.51 55.08 77.23 56.26 74.41 56.26C71.6 56.26 69.31 55.08 69.31 53.63C69.31 52.18 71.59 51 74.41 51C77.22 51.01 79.51 52.18 79.51 53.63Z" fill="#F8C2C0"/>
<path d="M38.85 53.63C38.85 55.08 36.57 56.26 33.75 56.26C30.93 56.26 28.65 55.08 28.65 53.63C28.65 52.18 30.93 51 33.75 51C36.57 51 38.85 52.18 38.85 53.63Z" fill="#F8C2C0"/>
<path d="M47.97 57.47C47.7 54.85 49.58 51.4 52.5 51.49C55.22 51.58 56.42 54.71 56.85 56.93" stroke="#002036" stroke-width="1.0875" stroke-miterlimit="10" stroke-linecap="round"/>
<path d="M76.76 4.1C76.76 4.1 72.85 5.91 71.43 10.08C70.94 11.52 71.69 14.95 72.44 16.13C73.19 17.31 68.91 19.96 68.91 19.96C68.91 19.96 74.41 19.27 74.41 21.59C74.41 24.49 81.23 25.85 83.49 26.91C84.28 27.28 86.52 25.58 86.52 25.58L93.56 27.39L99.81 22.09" stroke="#002036" stroke-width="1.0875" stroke-miterlimit="10"/>
<path d="M72.1 8.57C70.99 11.08 71.53 13.8 72.08 16.51C72.62 18.14 70.45 19.23 68.91 19.95C69.87 19.84 70.01 19.26 68.91 19.95C69.91 19.77 70.99 19.77 72.08 19.77C74.8 20.86 75.34 24.12 78.06 25.21C80.23 26.3 82.41 26.84 84.04 26.3C86.76 25.76 90.02 26.84 92.74 27.39C95.46 27.39 100.31 22.53 99.8 22.09C99.06 20.8 90.83 18.82 90.83 18.82C90.83 18.82 90.86 21.85 89.62 21.55C87.61 21.07 84.88 20.53 84.35 21.07C82.36 23.06 75.44 18.45 75.83 17.42C76.65 15.32 72.1 8.57 72.1 8.57Z" fill="#BCD6E6"/>
<path d="M93.14 23.9C89.26 23.98 88.71 22.3 84.86 23.46C81.08 24.6 77.93 23.78 75.7 20.34C73.62 17.12 73.65 13.08 71.67 9.91C71.19 12.03 71.64 14.27 72.09 16.51C72.56 17.92 71 18.92 69.58 19.64C69.46 19.66 69.25 19.75 68.92 19.96C69.92 19.78 71 19.78 72.09 19.78C74.81 20.87 75.35 24.13 78.07 25.22C80.24 26.31 82.42 26.85 84.05 26.31C86.77 25.77 90.03 26.85 92.75 27.4C94.11 27.4 98.25 23.29 99.41 22.1C99.29 22.09 93.25 23.9 93.14 23.9Z" fill="#BCD6E6"/>
<path d="M69.09 20.46L64.52 21.91L64.69 21.74L63.96 23.4L63.83 23.69L63.6 23.5L62.2 22.4L62.38 22.42L59.93 23.31L62.23 22.07L62.32 22.02L62.42 22.09L63.88 23.12L63.52 23.22L64.15 21.52L64.19 21.41L64.32 21.36L68.71 19.45L69.09 20.46Z" fill="#002036"/>
<path d="M93.81 26.92L94.88 29.06L94.73 28.94L96.02 29.48L96.18 29.55L96.17 29.7L96.12 31.25L96 31.07L98.51 32.19L95.87 31.43L95.75 31.39L95.74 31.25L95.69 29.7L95.85 29.93L94.53 29.49L94.46 29.46L94.38 29.37L92.89 27.51L93.81 26.92Z" fill="#002036"/>
<path d="M65.61 21.51L62.63 19.09L62.77 19.13L58.66 18.6H62.8H62.86L62.94 18.65L66.24 20.62L65.61 21.51Z" fill="#002036"/>
<path d="M83.72 26.41C83.72 26.41 84.12 26.6 84.71 26.89C85.01 27.04 85.35 27.17 85.72 27.32C86.1 27.47 86.49 27.63 86.9 27.79C88.53 28.42 90.2 29.02 90.2 29.02C90.2 29.02 88.47 28.68 86.74 28.31C86.3 28.21 85.86 28.11 85.45 28.01C85.04 27.91 84.64 27.83 84.33 27.72C83.69 27.53 83.27 27.4 83.27 27.4L83.72 26.41Z" fill="#002036"/>
<path d="M100.12 24.32L95.77 27.36L99.41 23.5L100.12 24.32Z" fill="#002036"/>
<path d="M72.22 5.88C72.22 5.88 71.96 6.3 71.58 6.93C71.39 7.25 71.16 7.61 70.92 8.01C70.7 8.41 70.47 8.84 70.24 9.27C69.3 10.99 68.47 12.79 68.47 12.79C68.47 12.79 69.04 10.9 69.75 9.04C69.92 8.57 70.1 8.1 70.26 7.66C70.44 7.23 70.62 6.84 70.76 6.5C71.05 5.82 71.25 5.37 71.25 5.37L72.22 5.88Z" fill="#002036"/>
<path d="M101.29 24.81L98.51 26.39L100.6 23.97L101.29 24.81Z" fill="#002036"/>
<path d="M76.54 7.06C77.46 8 78.6 8.8 79.66 9.57C80.66 10.3 81.5 10.67 82.73 10.66C82.75 10.66 82.76 10.64 82.76 10.62C82.55 9.71 81.31 9.02 80.63 8.45C79.62 7.6 78.74 6.53 77.64 5.8C76.74 5.21 75.77 6.28 76.54 7.06Z" fill="white"/>
<path d="M67.98 50.39C67.75 50.39 67.75 50.75 67.98 50.75C68.21 50.75 68.21 50.39 67.98 50.39Z" fill="#002036"/>
<path d="M69.76 50.08C68.89 50.08 68.89 51.42 69.76 51.42C70.63 51.43 70.63 50.08 69.76 50.08Z" fill="#002036"/>
<path d="M73.45 49.82C73.01 49.82 73.01 50.5 73.45 50.5C73.89 50.5 73.89 49.82 73.45 49.82Z" fill="#002036"/>
<path d="M72.06 51.17C71.39 51.17 71.39 52.21 72.06 52.21C72.73 52.22 72.73 51.17 72.06 51.17Z" fill="#002036"/>
<path d="M75.02 51.51C74.27 51.51 74.27 52.67 75.02 52.67C75.77 52.68 75.77 51.51 75.02 51.51Z" fill="#002036"/>
<path d="M76.9 49.25C76.31 49.25 76.31 50.17 76.9 50.17C77.49 50.17 77.49 49.25 76.9 49.25Z" fill="#002036"/>
<path d="M79.62 49.96C79.16 49.96 79.16 50.68 79.62 50.68C80.08 50.68 80.08 49.96 79.62 49.96Z" fill="#002036"/>
<path d="M79.41 52.26C79.22 52.26 79.22 52.56 79.41 52.56C79.6 52.56 79.6 52.26 79.41 52.26Z" fill="#002036"/>
<path d="M69.37 53.42C68.96 53.42 68.96 54.06 69.37 54.06C69.78 54.05 69.78 53.42 69.37 53.42Z" fill="#002036"/>
<path d="M67.53 51.79C67.16 51.79 67.16 52.36 67.53 52.36C67.9 52.37 67.9 51.79 67.53 51.79Z" fill="#002036"/>
<path d="M72.16 53.97C72.05 53.97 72.05 54.14 72.16 54.14C72.26 54.13 72.26 53.97 72.16 53.97Z" fill="#002036"/>
<path d="M74.32 53.43C74.12 53.43 74.12 53.73 74.32 53.73C74.51 53.73 74.51 53.43 74.32 53.43Z" fill="#002036"/>
<path d="M28.54 50.39C28.31 50.39 28.31 50.75 28.54 50.75C28.77 50.75 28.77 50.39 28.54 50.39Z" fill="#002036"/>
<path d="M30.33 50.08C29.46 50.08 29.46 51.42 30.33 51.42C31.2 51.42 31.19 50.08 30.33 50.08Z" fill="#002036"/>
<path d="M34.01 49.82C33.57 49.82 33.57 50.5 34.01 50.5C34.45 50.5 34.45 49.82 34.01 49.82Z" fill="#002036"/>
<path d="M32.62 51.17C31.95 51.17 31.95 52.21 32.62 52.21C33.29 52.22 33.29 51.17 32.62 51.17Z" fill="#002036"/>
<path d="M35.59 51.51C34.84 51.51 34.84 52.67 35.59 52.67C36.33 52.68 36.33 51.51 35.59 51.51Z" fill="#002036"/>
<path d="M37.46 49.25C36.87 49.25 36.87 50.17 37.46 50.17C38.05 50.17 38.05 49.25 37.46 49.25Z" fill="#002036"/>
<path d="M40.18 49.96C39.72 49.96 39.72 50.68 40.18 50.68C40.65 50.68 40.65 49.96 40.18 49.96Z" fill="#002036"/>
<path d="M39.97 52.26C39.78 52.26 39.78 52.56 39.97 52.56C40.16 52.56 40.16 52.26 39.97 52.26Z" fill="#002036"/>
<path d="M29.93 53.42C29.52 53.42 29.52 54.06 29.93 54.06C30.34 54.05 30.34 53.42 29.93 53.42Z" fill="#002036"/>
<path d="M28.09 51.79C27.72 51.79 27.72 52.36 28.09 52.36C28.46 52.37 28.46 51.79 28.09 51.79Z" fill="#002036"/>
<path d="M32.72 53.97C32.61 53.97 32.61 54.14 32.72 54.14C32.82 54.13 32.82 53.97 32.72 53.97Z" fill="#002036"/>
<path d="M34.88 53.43C34.69 53.43 34.69 53.73 34.88 53.73C35.07 53.73 35.07 53.43 34.88 53.43Z" fill="#002036"/>
<path d="M82.56 53.77C83.02 55.65 81.71 58.42 79.6 58.73C77.73 59.01 76.63 57.35 77.28 55.53C78.8 51.25 76.75 47.7 76.75 47.7C76.75 47.7 81.53 49.52 82.56 53.77Z" fill="#B7E2FA"/>
<path d="M78.96 55.18C79.47 50.14 76.76 47.7 76.76 47.7C76.76 47.7 78.81 51.25 77.29 55.53C76.64 57.35 77.74 59 79.61 58.73C80 58.67 80.36 58.53 80.69 58.33C79.76 57.57 78.84 56.35 78.96 55.18Z" fill="#A1DAF8"/>
<path d="M81.14 52.78C81.31 53.92 80.18 56.13 80.43 56.53C80.69 56.95 81.22 56.9 81.55 56.61C82.07 56.14 82.51 53.88 81.14 52.78Z" fill="white"/>
<path d="M91.52 0.66C91.49 0.15 90.79 -0.22 90.38 0.14C89.29 1.11 88.94 2.47 88.57 3.85C88.16 5.36 87.74 7.27 88.2 8.8C88.34 9.26 89.04 9.38 89.32 8.99C90.08 7.95 90.25 6.6 90.55 5.37C90.92 3.85 91.61 2.24 91.52 0.66Z" fill="#002036"/>
<path d="M97.72 5.23C96.67 5.61 95.84 6.34 94.98 7.02C94.05 7.75 93.11 8.54 92.29 9.39C92.05 9.64 92.3 10.12 92.64 10.05C93.79 9.84 94.73 9.2 95.65 8.51C96.59 7.8 97.56 6.94 98.28 6.01C98.59 5.62 98.2 5.05 97.72 5.23Z" fill="#002036"/>
<path d="M103.04 9.35C100.35 9.73 98.05 11.16 95.26 11.25C94.58 11.27 94.46 12.12 94.87 12.52C95.97 13.61 97.71 13.29 99.07 12.95C100.75 12.53 102.48 11.84 103.7 10.58C104.16 10.11 103.67 9.26 103.04 9.35Z" fill="#002036"/>
</g>
<defs>
<clipPath id="clip0">
<rect width="104.71" height="119.61" fill="white"/>
</clipPath>
</defs>
</svg>
