<svg width="114" height="131" viewBox="0 0 114 131" fill="none" xmlns="http://www.w3.org/2000/svg">
<g clip-path="url(#clip0)">
<path d="M12.77 125.57C12.77 128.17 31.47 130.28 54.53 130.28C77.59 130.28 96.29 128.17 96.29 125.57C96.29 122.97 77.59 120.86 54.53 120.86C31.47 120.86 12.77 122.97 12.77 125.57Z" fill="#9D9D9C"/>
<path d="M25.42 64.8C26.92 66.05 28.75 65.37 30.1 64.35C31.05 63.64 31.26 58.67 30.13 58.3C29 57.93 26.77 60.43 26.77 60.43C26.77 60.43 25.86 58.9 25.56 59.39C24.55 61.04 23.93 63.56 25.42 64.8Z" fill="#F3FAFF" stroke="#002036" stroke-width="1.6842" stroke-miterlimit="10"/>
<path d="M30.71 64.24C30.14 64.86 28.73 64.9 27.67 64.24C26.61 63.59 26.47 58.98 27.67 58.34C28.87 57.7 30.08 57.84 30.71 58.34C31.35 58.84 31.28 63.62 30.71 64.24Z" fill="#F3FAFF" stroke="#002036" stroke-width="1.5295" stroke-miterlimit="10"/>
<path d="M79.22 11.37C71.62 11.37 64.77 18.26 54.52 18.26C44.27 18.26 37.42 11.37 29.82 11.37C14.81 11.37 -1.47 32.8 0.739997 49.99C3.19 69.16 24.54 126.95 39.27 126.95C46.54 126.95 46.5 112.51 50.22 97.02C51.92 89.94 55.32 89.09 57.02 97.59C60.2 113.5 62.97 126.96 69.78 126.96C84.51 126.96 106.27 65.41 108.31 50C110.57 32.8 93.85 11.37 79.22 11.37Z" fill="#F3FAFF" stroke="#002036" stroke-width="1.0875" stroke-miterlimit="10"/>
<path d="M34.41 100.22C41.42 100.79 40.03 79.64 54.52 78.77C62.84 78.28 66.52 82.42 67.75 88.84C69.05 95.63 68.57 101.98 75.87 101.54C83.18 101.1 103.13 69.62 102.58 49.66C102.33 40.53 98.47 30.26 94.18 22.23C91.36 16.96 85.72 13.93 79.78 14.15C72.42 14.42 65.85 19.31 59.62 22.7C51.22 27.26 45.04 19.63 37.47 17.59C30.24 15.63 23.56 17.56 18.78 23.54C13 30.77 12.9 41.45 15 50.07C16.53 56.36 27.41 99.65 34.41 100.22Z" fill="white"/>
<path d="M53.98 27.22C58.95 27.75 63.08 26.54 67.81 25.18C72.41 23.87 77.46 23.07 81.9 25.39C90.98 30.13 95.27 41.86 96.98 51.34C98.01 57.04 98.74 62.85 97.87 68.62C97.61 70.37 97.21 72.08 96.72 73.77C100.3 65.57 102.78 56.86 102.58 49.66C102.33 40.53 98.47 30.26 94.18 22.23C91.36 16.96 85.72 13.93 79.78 14.15C72.42 14.42 65.85 19.31 59.62 22.7C51.22 27.26 45.04 19.63 37.47 17.59C36.59 17.35 35.72 17.17 34.86 17.05C39.75 22.41 46.97 26.47 53.98 27.22Z" fill="white"/>
<path d="M40.29 20.64C44.07 23.7 48.19 25.8 52.93 24.97C58.6 23.97 65.66 19.71 67.76 14.86C63.85 16.57 59.6 18.26 54.53 18.26C44.82 18.26 38.15 12.07 31.02 11.43C34.12 14.48 36.88 17.88 40.29 20.64Z" fill="#E6F5FE"/>
<path d="M42.99 23.56C46.04 25.24 48.84 27.66 49.12 29.29C56.97 28.62 63.45 22.67 68.85 19.44C66.12 15.69 58.04 20.51 51.97 20.51C40.35 20.51 40.99 16.72 33.27 16.72C35.96 23.05 39.94 21.88 42.99 23.56Z" fill="#CFDCE4"/>
<path d="M61.79 21.88C58.98 22.96 56.02 25.79 52.8 25.42C50.94 25.21 49.25 24.8 47.63 23.81C46.51 23.12 45.34 22.12 44.08 21.72C42.54 21.23 40.97 20.93 39.4 20.54C38.18 20.24 36.85 19.48 35.63 19.33C35.26 19.29 34.91 19.21 34.57 19.11C37.14 22.77 40.4 22.14 42.99 23.57C46.04 25.25 48.84 27.67 49.12 29.3C55.91 28.72 61.66 24.2 66.59 20.9C65.01 20.92 63.42 21.24 61.79 21.88Z" fill="#BCD6E6"/>
<path d="M86.24 97.76C83.47 101.88 75.98 107.1 70.21 105.54C64.55 104.01 64.06 96.04 62.98 91.4C62.47 89.22 62.13 85.36 59.77 84.32C57.41 83.28 54.41 83.45 52.19 84.74C47.71 87.33 44.1 92.64 43.32 97.77C42.59 102.56 41.72 109.36 35.53 109.49C32.28 109.56 30.62 105.99 28.71 103.78C25.63 100.22 11.84 75.85 1.19 52.77C5.1 74.19 25.2 126.94 39.28 126.94C46.55 126.94 46.51 112.5 50.23 97.01C51.93 89.93 55.33 89.08 57.03 97.58C60.21 113.49 62.98 126.95 69.79 126.95C80.43 126.95 94.75 94.82 102.64 71.18C97.39 81.9 92.32 88.73 86.24 97.76Z" fill="#E6F5FE"/>
<path d="M40.03 53.88C32.66 47.62 29.32 55.72 27.34 54.64C27.23 54.58 28.17 53.96 28.12 53.68C28.1 53.55 27.06 53.83 27.05 53.67C27.04 53.41 27.77 52.69 27.8 52.37C27.82 52.04 27 52.06 27.19 51.76C28.96 48.83 36.59 46.12 40.03 53.88Z" fill="#002036"/>
<path d="M27.4 43.7C32.14 40.21 38.64 50.04 41.14 48.09" stroke="#002036" stroke-width="2.5264" stroke-miterlimit="10" stroke-linecap="round" stroke-linejoin="round"/>
<path d="M68.35 53.88C75.72 47.62 79.06 55.72 81.04 54.64C81.15 54.58 80.21 53.96 80.26 53.68C80.28 53.55 81.32 53.83 81.33 53.67C81.34 53.41 80.61 52.69 80.58 52.37C80.56 52.04 81.38 52.06 81.19 51.76C79.42 48.83 71.79 46.12 68.35 53.88Z" fill="#002036"/>
<path d="M80.98 43.7C76.24 40.21 69.74 50.04 67.24 48.09" stroke="#002036" stroke-width="2.5264" stroke-miterlimit="10" stroke-linecap="round" stroke-linejoin="round"/>
<path d="M21.32 18.17C20.43 18.1 19.34 18.92 18.67 19.45C17.73 20.19 17.14 21.04 16.6 22.09C16.57 22.15 16.66 22.2 16.69 22.14C17.26 21.22 18.09 20.45 18.95 19.8C19.69 19.24 20.77 19.01 21.41 18.37C21.5 18.31 21.43 18.18 21.32 18.17Z" fill="#002036"/>
<path d="M22.33 18.99C21.22 19.19 19.98 19.79 19.43 20.82C19.4 20.87 19.46 20.95 19.52 20.91C20.44 20.26 21.4 19.85 22.51 19.65C22.94 19.57 22.76 18.91 22.33 18.99Z" fill="#002036"/>
<path d="M21.23 94.31C20.8 93.75 20.22 93.36 19.74 92.83C19.15 92.18 18.69 91.38 18.53 90.52C18.52 90.47 18.46 90.49 18.45 90.53C18.28 92.1 19.45 94.31 21.18 94.42C21.25 94.43 21.26 94.36 21.23 94.31Z" fill="#002036"/>
<path d="M23.36 93.46C22.53 92.72 21.36 92.42 20.67 91.5C20.63 91.44 20.53 91.47 20.55 91.55C20.85 92.76 22.09 93.59 23.31 93.59C23.37 93.58 23.41 93.5 23.36 93.46Z" fill="#002036"/>
<path d="M91.58 85.92C91.08 86.92 90.91 88.04 90.39 89.06C89.89 90.04 89.17 90.88 88.58 91.8C88.57 91.82 88.59 91.85 88.62 91.84C90.24 90.74 92 88.03 91.89 86.01C91.88 85.85 91.65 85.76 91.58 85.92Z" fill="#002036"/>
<path d="M90.7 84.28C90.67 84.19 90.55 84.17 90.49 84.25C90.14 84.77 90.1 85.37 89.98 85.98C89.85 86.59 89.68 87.23 89.45 87.81C89.38 87.99 89.64 88.07 89.74 87.93C90.4 86.98 91.13 85.45 90.7 84.28Z" fill="#002036"/>
<path d="M81.29 14.39C80.17 13.58 78.45 13.75 77.24 14.28C77.18 14.31 77.21 14.39 77.27 14.39C77.87 14.39 78.47 14.33 79.07 14.32C79.81 14.3 80.51 14.52 81.24 14.58C81.35 14.58 81.36 14.44 81.29 14.39Z" fill="#002036"/>
<path d="M82.73 16.11C81.83 15.33 80.6 15.27 79.51 15.63C79.39 15.67 79.4 15.88 79.54 15.86C80.35 15.77 81.12 15.94 81.84 16.31C82.06 16.43 82.7 16.93 82.81 16.41C82.84 16.32 82.82 16.19 82.73 16.11Z" fill="#002036"/>
<path d="M82.82 63.11C82.82 64.62 80.44 65.85 77.51 65.85C74.58 65.85 72.2 64.62 72.2 63.11C72.2 61.6 74.58 60.37 77.51 60.37C80.44 60.37 82.82 61.59 82.82 63.11Z" fill="#F8C29E"/>
<path d="M40.46 63.11C40.46 64.62 38.08 65.85 35.15 65.85C32.22 65.85 29.84 64.62 29.84 63.11C29.84 61.6 32.22 60.37 35.15 60.37C38.08 60.37 40.46 61.59 40.46 63.11Z" fill="#F8C29E"/>
<path d="M40.78 78.67C36.98 75.73 42.65 65.35 47.08 64.1C51.51 62.85 52.14 65.7 56.26 65.7C60.37 65.7 60.63 62.52 65.25 64.19C69.87 65.86 72.58 74.15 70.44 79.53C69.39 82.15 62.44 76.56 55.8 76.46C48.82 76.35 44.47 81.51 40.78 78.67Z" fill="#EA4C6D" stroke="#002036" stroke-width="1.6842" stroke-miterlimit="10" stroke-linecap="round"/>
<path d="M66.29 69.34C67.99 69.34 67.25 64.91 65.24 64.18C60.62 62.51 60.37 65.69 56.25 65.69C52.14 65.69 51.5 62.84 47.07 64.09C45.19 64.62 44.11 69.33 45.53 69.33C45.53 69.33 59.99 69.33 60.59 69.33C61.19 69.33 61.89 68.32 61.89 68.32C61.89 68.32 62.61 69.33 63.28 69.33C63.96 69.34 66.29 69.34 66.29 69.34Z" fill="white" stroke="#002036" stroke-width="1.6842" stroke-miterlimit="10" stroke-linecap="round"/>
<path d="M70.9 59.92C70.66 59.92 70.66 60.3 70.9 60.3C71.15 60.29 71.15 59.92 70.9 59.92Z" fill="#002036"/>
<path d="M72.77 59.59C71.87 59.59 71.87 60.99 72.77 60.99C73.67 60.99 73.67 59.59 72.77 59.59Z" fill="#002036"/>
<path d="M76.61 59.32C76.15 59.32 76.15 60.03 76.61 60.03C77.06 60.03 77.06 59.32 76.61 59.32Z" fill="#002036"/>
<path d="M75.16 60.73C74.46 60.73 74.46 61.82 75.16 61.82C75.86 61.82 75.86 60.73 75.16 60.73Z" fill="#002036"/>
<path d="M78.25 61.09C77.47 61.09 77.47 62.3 78.25 62.3C79.03 62.29 79.03 61.09 78.25 61.09Z" fill="#002036"/>
<path d="M80.2 58.73C79.58 58.73 79.58 59.69 80.2 59.69C80.82 59.69 80.82 58.73 80.2 58.73Z" fill="#002036"/>
<path d="M83.04 59.46C82.56 59.46 82.56 60.21 83.04 60.21C83.52 60.21 83.52 59.46 83.04 59.46Z" fill="#002036"/>
<path d="M82.82 61.86C82.62 61.86 82.62 62.17 82.82 62.17C83.02 62.17 83.02 61.86 82.82 61.86Z" fill="#002036"/>
<path d="M72.36 63.07C71.93 63.07 71.93 63.73 72.36 63.73C72.79 63.73 72.79 63.07 72.36 63.07Z" fill="#002036"/>
<path d="M70.44 61.37C70.05 61.37 70.05 61.97 70.44 61.97C70.82 61.97 70.82 61.37 70.44 61.37Z" fill="#002036"/>
<path d="M75.26 63.64C75.15 63.64 75.15 63.81 75.26 63.81C75.37 63.81 75.37 63.64 75.26 63.64Z" fill="#002036"/>
<path d="M77.51 63.08C77.31 63.08 77.31 63.39 77.51 63.39C77.71 63.4 77.71 63.08 77.51 63.08Z" fill="#002036"/>
<path d="M29.81 59.92C29.57 59.92 29.57 60.3 29.81 60.3C30.05 60.29 30.05 59.92 29.81 59.92Z" fill="#002036"/>
<path d="M31.67 59.59C30.77 59.59 30.77 60.99 31.67 60.99C32.58 60.99 32.58 59.59 31.67 59.59Z" fill="#002036"/>
<path d="M35.51 59.32C35.05 59.32 35.05 60.03 35.51 60.03C35.97 60.03 35.97 59.32 35.51 59.32Z" fill="#002036"/>
<path d="M34.06 60.73C33.36 60.73 33.36 61.82 34.06 61.82C34.76 61.82 34.77 60.73 34.06 60.73Z" fill="#002036"/>
<path d="M37.15 61.09C36.37 61.09 36.37 62.3 37.15 62.3C37.93 62.29 37.93 61.09 37.15 61.09Z" fill="#002036"/>
<path d="M39.1 58.73C38.48 58.73 38.48 59.69 39.1 59.69C39.72 59.69 39.72 58.73 39.1 58.73Z" fill="#002036"/>
<path d="M41.94 59.46C41.46 59.46 41.46 60.21 41.94 60.21C42.43 60.21 42.43 59.46 41.94 59.46Z" fill="#002036"/>
<path d="M41.73 61.86C41.53 61.86 41.53 62.17 41.73 62.17C41.92 62.17 41.92 61.86 41.73 61.86Z" fill="#002036"/>
<path d="M31.26 63.07C30.83 63.07 30.83 63.73 31.26 63.73C31.69 63.73 31.69 63.07 31.26 63.07Z" fill="#002036"/>
<path d="M29.35 61.37C28.96 61.37 28.96 61.97 29.35 61.97C29.73 61.97 29.73 61.37 29.35 61.37Z" fill="#002036"/>
<path d="M34.17 63.64C34.06 63.64 34.06 63.81 34.17 63.81C34.28 63.81 34.28 63.64 34.17 63.64Z" fill="#002036"/>
<path d="M36.42 63.08C36.22 63.08 36.22 63.39 36.42 63.39C36.62 63.4 36.62 63.08 36.42 63.08Z" fill="#002036"/>
<path d="M48.09 29.07C48.09 29.07 47.91 28.81 47.61 28.35C47.45 28.13 47.28 27.81 47.04 27.58C46.8 27.32 46.57 27.01 46.25 26.7C45.91 26.41 45.58 26.05 45.16 25.75C44.74 25.44 44.31 25.11 43.81 24.83C43.33 24.52 42.79 24.26 42.25 23.98C41.7 23.72 41.14 23.45 40.56 23.2C39.42 22.69 38.25 22.19 37.21 21.58C36.68 21.3 36.22 20.94 35.77 20.62C35.37 20.24 34.95 19.92 34.68 19.52C34.53 19.33 34.39 19.15 34.25 18.98C34.15 18.79 34.05 18.61 33.95 18.44C33.86 18.27 33.77 18.11 33.69 17.97C33.63 17.82 33.58 17.67 33.54 17.54C33.36 17.02 33.26 16.72 33.26 16.72C33.26 16.72 33.38 17.01 33.6 17.51C33.66 17.63 33.71 17.78 33.78 17.92C33.87 18.06 33.97 18.21 34.07 18.37C34.17 18.53 34.28 18.7 34.4 18.88C34.54 19.04 34.69 19.2 34.85 19.37C35.14 19.74 35.57 20.01 35.97 20.35C36.43 20.62 36.88 20.94 37.42 21.17C38.46 21.68 39.64 22.08 40.82 22.51C41.41 22.72 42.01 22.95 42.59 23.17C43.17 23.42 43.75 23.65 44.28 23.94C44.83 24.2 45.33 24.51 45.81 24.81C46.29 25.1 46.69 25.47 47.09 25.76C47.47 26.08 47.79 26.43 48.09 26.72C48.41 27.01 48.57 27.28 48.75 27.49C49.09 27.92 49.29 28.17 49.29 28.17C49.55 28.5 49.49 28.97 49.17 29.23C48.84 29.49 48.37 29.43 48.11 29.11C48.11 29.1 48.1 29.09 48.09 29.07Z" fill="#002036"/>
<path d="M45.35 27.9C45.35 27.9 45.47 27.94 45.68 28C45.89 28.06 46.23 28.18 46.62 28.28C47.01 28.35 47.45 28.49 48.02 28.53C48.57 28.61 49.21 28.63 49.9 28.61C50.59 28.58 51.35 28.5 52.13 28.32C52.92 28.17 53.73 27.89 54.57 27.58C56.23 26.93 57.92 25.99 59.55 24.96C61.18 23.92 62.77 22.79 64.3 21.77C65.83 20.76 67.31 19.87 68.71 19.36C69.4 19.1 70.08 18.97 70.67 18.91C70.97 18.9 71.25 18.9 71.51 18.92C71.77 18.97 72 18.98 72.21 19.05C72.41 19.12 72.6 19.18 72.75 19.23C72.9 19.3 73.02 19.37 73.13 19.42C73.33 19.53 73.44 19.58 73.44 19.58C73.44 19.58 73.33 19.53 73.12 19.43C73.02 19.38 72.89 19.32 72.74 19.26C72.58 19.22 72.4 19.17 72.19 19.11C71.99 19.06 71.75 19.05 71.5 19.02C71.25 19.01 70.97 19.02 70.68 19.05C70.1 19.13 69.45 19.29 68.79 19.58C67.45 20.14 66.03 21.08 64.57 22.16C63.1 23.24 61.57 24.45 59.97 25.58C58.37 26.71 56.68 27.76 54.97 28.53C54.11 28.9 53.26 29.23 52.41 29.44C51.57 29.68 50.75 29.81 49.98 29.88C49.22 29.94 48.51 29.95 47.88 29.89C47.26 29.87 46.7 29.73 46.24 29.67C45.8 29.58 45.5 29.48 45.27 29.43C45.05 29.37 44.93 29.34 44.93 29.34C44.53 29.23 44.28 28.82 44.39 28.42C44.49 28.02 44.91 27.77 45.31 27.88C45.32 27.89 45.33 27.9 45.35 27.9Z" fill="#002036"/>
<path d="M47.76 69.34L48.33 66.22L48.89 69.34H47.76Z" fill="#002036"/>
<path d="M53.28 69.16L53.85 66.84L54.42 69.16H53.28Z" fill="#002036"/>
<path d="M60.24 79.47C57.79 77.28 54.39 78.02 51.9 79.71C51.78 79.79 51.86 79.97 52 79.94C53.11 79.7 54.2 79.5 55.34 79.57C56.84 79.67 57.85 80.22 59.16 80.87C60.02 81.29 61.03 80.18 60.24 79.47Z" fill="#002036"/>
<path d="M62.21 27.08C60.27 28.16 58.83 29.7 56.72 30.56C54.49 31.47 51.89 31.8 49.51 31.96C49.42 31.97 49.42 32.1 49.51 32.11C53.71 32.31 60.4 31.84 62.59 27.45C62.7 27.22 62.46 26.94 62.21 27.08Z" fill="#002036"/>
<path d="M62.86 29.39C62.41 29.57 62.12 29.95 61.76 30.25C61.37 30.58 60.97 30.89 60.58 31.22C60.53 31.26 60.55 31.36 60.62 31.38C61.12 31.46 61.55 31.26 61.97 31C62.45 30.72 63.03 30.22 63.11 29.64C63.13 29.51 63.02 29.32 62.86 29.39Z" fill="#002036"/>
<path d="M85.94 60.25C86.42 62.21 85.05 65.1 82.85 65.42C80.9 65.71 79.76 63.99 80.44 62.09C82.03 57.63 79.89 53.93 79.89 53.93C79.89 53.93 84.86 55.82 85.94 60.25Z" fill="#B7E2FA"/>
<path d="M82.19 61.72C82.72 56.46 79.89 53.93 79.89 53.93C79.89 53.93 82.03 57.63 80.44 62.09C79.76 63.99 80.9 65.71 82.85 65.42C83.25 65.36 83.63 65.21 83.97 65C83.03 64.21 82.07 62.94 82.19 61.72Z" fill="#A1DAF8"/>
<path d="M84.46 59.22C84.64 60.4 83.46 62.71 83.72 63.12C83.99 63.56 84.55 63.5 84.88 63.2C85.43 62.72 85.89 60.37 84.46 59.22Z" fill="white"/>
<path d="M23.06 60.25C22.58 62.21 23.95 65.1 26.15 65.42C28.1 65.71 29.24 63.99 28.56 62.09C26.97 57.63 29.11 53.93 29.11 53.93C29.11 53.93 24.14 55.82 23.06 60.25Z" fill="#B7E2FA"/>
<path d="M26.81 61.72C26.28 56.46 29.11 53.93 29.11 53.93C29.11 53.93 26.97 57.63 28.56 62.09C29.24 63.99 28.1 65.71 26.15 65.42C25.75 65.36 25.37 65.21 25.03 65C25.98 64.21 26.94 62.94 26.81 61.72Z" fill="#A1DAF8"/>
<path d="M24.54 59.22C24.36 60.4 25.53 62.71 25.28 63.12C25.01 63.56 24.45 63.5 24.12 63.2C23.57 62.72 23.11 60.37 24.54 59.22Z" fill="white"/>
<path d="M107.81 31.97C107.8 31.96 107.78 31.97 107.79 31.98C110.33 36.65 112 41.41 112.54 46.7C112.55 46.79 112.68 46.79 112.69 46.7C113.22 41.45 110.53 36.27 107.81 31.97Z" fill="#002036"/>
<path d="M113.37 38.58C113.1 37.42 112.73 36.51 111.79 35.77C111.77 35.75 111.73 35.77 111.75 35.8C112.27 36.83 112.54 38 112.7 39.14C112.83 40.08 112.8 41.3 113.45 42.04C113.56 42.17 113.8 42.1 113.84 41.94C114.04 40.92 113.6 39.59 113.37 38.58Z" fill="#002036"/>
<path d="M8.35 20.66C6.87 21.47 5.84 22.94 4.83 24.26C3.78 25.63 2.55 27.09 1.89 28.69C1.86 28.77 1.97 28.85 2.04 28.8C3.36 27.93 4.29 26.49 5.26 25.26C6.38 23.84 7.77 22.58 8.77 21.08C8.95 20.81 8.61 20.52 8.35 20.66Z" fill="#002036"/>
<path d="M6.58 20.21C4.75 21.4 3.25 23.12 1.94 24.86C1.91 24.9 1.97 24.96 2.01 24.93C3.84 23.78 5.33 22.05 6.77 20.47C6.91 20.34 6.75 20.11 6.58 20.21Z" fill="#002036"/>
<path d="M48.15 13.81C47.3 13.18 46.35 12.82 45.33 12.65C45.41 12.17 45.38 11.64 44.85 11.5C44.54 11.42 44.22 11.52 43.95 11.66C42.57 12.38 42.35 10.64 42.1 9.58C42.02 9.23 41.65 9.08 41.33 9.14C39.54 9.5 38 11.04 37.52 8.49C37.49 8.32 37.28 8.15 37.1 8.17C36.08 8.3 35.31 8.47 34.5 9.12C34.44 9.17 34.51 9.24 34.56 9.23C36.78 8.82 36.5 9.17 37.12 11.01C37.23 11.33 37.49 11.44 37.8 11.4C38.92 11.24 39.94 10.8 41.02 10.49C41.25 11.51 41.52 12.65 42.46 13.21C42.63 13.31 42.94 13.34 43.12 13.28C43.51 13.14 44.17 12.55 44.03 12.98C43.91 13.38 44.23 13.67 44.59 13.72C45.75 13.87 46.59 14.58 47.71 14.78C48.35 14.89 48.64 14.17 48.15 13.81Z" fill="#002036"/>
<path d="M48 9.8C47.97 9.67 47.8 9.56 47.67 9.61C46.98 9.89 46.28 9.97 45.54 9.99C45.24 9.28 44.5 9.09 43.76 9.28C43.72 9.29 43.73 9.35 43.77 9.35C44.56 9.35 44.88 9.63 45.04 10.39C45.07 10.52 45.2 10.62 45.33 10.61C46.07 10.58 46.76 10.4 47.47 10.23C47.49 10.67 47.58 11.14 47.85 11.48C47.95 11.6 48.17 11.56 48.24 11.43C48.53 10.87 48.13 10.35 48 9.8Z" fill="#002036"/>
<path d="M13.02 96.25C12.46 95.97 11.92 95.83 11.31 95.68C9.83 95.33 9.63 94.25 9.44 93.02C9.41 92.79 9.15 92.63 8.93 92.63C8.81 92.63 8.69 92.63 8.57 92.63C8.5 91.91 8.33 91.28 8.07 90.55C7.74 89.61 8.73 88.71 8.46 87.78C7.9 85.85 5.55 86.62 4.75 84.76C4.72 84.7 4.6 84.73 4.61 84.8C4.77 85.99 5.28 86.58 6.46 86.9C8.18 87.38 7.23 88.97 7.04 90.05C6.87 91.02 7.56 92.17 7.56 93.16C7.56 93.45 7.8 93.68 8.08 93.68C8.18 93.68 9.12 95.81 9.4 96.08C10.15 96.83 11.66 96.83 12.62 97.19C13.17 97.41 13.54 96.52 13.02 96.25Z" fill="#002036"/>
<path d="M8.96 97.19C8.71 96.04 7.33 96.07 6.91 95.09C6.87 94.99 6.69 95.04 6.7 95.15C6.74 95.61 6.93 96 7.3 96.28C7.48 96.42 7.69 96.53 7.87 96.67C8.09 96.85 8.19 97.12 8.28 97.37C8.34 97.53 8.45 97.6 8.62 97.63C8.69 97.64 8.74 97.62 8.8 97.58C8.94 97.5 8.99 97.35 8.96 97.19Z" fill="#002036"/>
<path d="M100.98 85.72C100.8 85.59 100.55 85.8 100.61 86C101.08 87.59 100.21 88.49 99.45 89.6C99.18 89.99 98.81 90.53 99.15 91.04C99.39 91.39 98.27 93.36 98.14 93.88C97.77 95.39 96.44 96.4 95.53 97.62C95.4 97.8 95.5 98.07 95.68 98.18C96.71 98.79 97.65 101.06 96.51 101.81C95.18 102.68 93.83 103.22 92.33 103.7C92.26 103.72 92.24 103.82 92.31 103.86C94.01 104.86 96.52 102.65 97.94 101.87C98.15 101.75 98.17 101.51 98.09 101.31C97.68 100.35 97.54 99.34 97.1 98.39C96.66 97.44 96.36 97.82 97.35 96.79C98.77 95.32 98.86 93.96 100.04 92.38C100.49 91.78 100.57 91.77 100.38 91.11C100.11 90.19 101.2 89.69 101.59 89.04C102.33 87.77 102.1 86.5 100.98 85.72Z" fill="#002036"/>
<path d="M101.49 91.95C100.61 92.72 99.8 94.55 101 95.11C100.15 95.83 99.42 96.86 98.68 97.64C98.47 97.87 98.74 98.21 99.01 98.07C100.1 97.49 101.27 96.26 101.79 95.13C101.85 94.99 101.82 94.78 101.63 94.75C99.96 94.51 101.61 92.95 101.97 92.32C102.15 92.01 101.75 91.73 101.49 91.95Z" fill="#002036"/>
<path d="M92.54 0.69C92.51 0.16 91.78 -0.23 91.35 0.15C90.21 1.16 89.85 2.58 89.46 4.01C89.04 5.58 88.59 7.58 89.08 9.17C89.23 9.65 89.95 9.77 90.25 9.37C91.04 8.29 91.22 6.88 91.54 5.6C91.92 4.02 92.64 2.33 92.54 0.69Z" fill="#002036"/>
<path d="M99.01 5.45C97.92 5.85 97.06 6.61 96.15 7.32C95.18 8.08 94.2 8.91 93.34 9.79C93.09 10.05 93.35 10.55 93.71 10.48C94.9 10.26 95.89 9.59 96.85 8.87C97.83 8.13 98.84 7.24 99.59 6.27C99.91 5.86 99.51 5.27 99.01 5.45Z" fill="#002036"/>
<path d="M104.55 9.74C101.75 10.13 99.35 11.62 96.45 11.72C95.74 11.74 95.62 12.63 96.04 13.05C97.19 14.18 99 13.85 100.41 13.5C102.16 13.06 103.96 12.35 105.23 11.03C105.72 10.54 105.21 9.65 104.55 9.74Z" fill="#002036"/>
</g>
<defs>
<clipPath id="clip0">
<rect width="113.89" height="130.28" fill="white"/>
</clipPath>
</defs>
</svg>
