<svg width="251" height="131" viewBox="0 0 251 131" fill="none" xmlns="http://www.w3.org/2000/svg">
<g clip-path="url(#clip0)">
<path d="M145.17 125.57C145.17 128.17 163.87 130.28 186.93 130.28C209.99 130.28 228.69 128.17 228.69 125.57C228.69 122.97 209.99 120.86 186.93 120.86C163.87 120.86 145.17 122.97 145.17 125.57Z" fill="#9D9D9C"/>
<path d="M21.34 123.28C21.34 125.88 40.04 127.99 63.1 127.99C86.16 127.99 104.86 125.88 104.86 123.28C104.86 120.68 86.16 118.57 63.1 118.57C40.04 118.57 21.34 120.68 21.34 123.28Z" fill="#9D9D9C"/>
<path d="M87.79 7.71C80.19 7.71 73.34 14.6 63.09 14.6C52.84 14.6 45.99 7.71 38.39 7.71C23.38 7.71 7.1 29.14 9.31 46.33C11.77 65.5 33.11 123.29 47.84 123.29C55.11 123.29 55.07 108.85 58.79 93.36C60.49 86.28 63.89 85.43 65.59 93.93C68.77 109.84 71.54 123.3 78.34 123.3C93.07 123.3 114.83 61.75 116.87 46.34C119.14 29.14 102.42 7.71 87.79 7.71Z" fill="#F3FAFF" stroke="#002036" stroke-width="1.0875" stroke-miterlimit="10"/>
<path d="M42.98 96.56C49.99 97.13 48.6 75.97 63.09 75.11C71.42 74.62 75.09 78.76 76.32 85.18C77.62 91.97 77.14 98.31 84.44 97.88C91.75 97.45 111.7 65.96 111.15 46C110.9 36.87 107.04 26.6 102.75 18.57C99.93 13.3 94.29 10.27 88.35 10.49C81 10.76 74.43 15.65 68.2 19.04C59.8 23.6 53.62 15.97 46.05 13.93C38.82 11.97 32.14 13.9 27.36 19.88C21.58 27.11 21.48 37.79 23.58 46.41C25.1 52.7 35.98 95.99 42.98 96.56Z" fill="white"/>
<path d="M62.55 23.56C67.52 24.09 71.65 22.88 76.38 21.52C80.98 20.21 86.03 19.41 90.47 21.73C99.55 26.47 103.84 38.2 105.55 47.68C106.58 53.38 107.31 59.19 106.44 64.96C106.18 66.71 105.78 68.42 105.29 70.11C108.87 61.91 111.35 53.2 111.15 46C110.9 36.87 107.04 26.6 102.75 18.57C99.93 13.3 94.29 10.27 88.35 10.49C81 10.76 74.43 15.65 68.2 19.04C59.8 23.6 53.62 15.97 46.05 13.93C45.17 13.69 44.3 13.51 43.44 13.39C48.32 18.75 55.54 22.81 62.55 23.56Z" fill="#F6F6F6"/>
<path d="M45.07 42.33C41.82 42.31 39.33 40.65 37.28 43.99C35.84 46.33 35.32 50.06 36.52 52.72C39.38 59.02 49.54 54.05 46.01 47.8L45.07 42.33Z" fill="#E6F5FE"/>
<path d="M48.86 16.98C52.64 20.04 57.54 20.9 62.28 20.06C67.95 19.06 74.23 16.05 76.33 11.2C72.42 12.91 68.17 14.6 63.09 14.6C53.38 14.6 46.71 8.41 39.58 7.77C42.69 10.82 45.45 14.22 48.86 16.98Z" fill="#E6F5FE"/>
<path d="M94.81 94.1C92.04 98.22 84.55 103.44 78.78 101.88C73.12 100.35 72.63 92.38 71.55 87.74C71.04 85.56 70.7 81.7 68.34 80.66C65.98 79.62 62.98 79.79 60.76 81.08C56.28 83.67 52.67 88.98 51.89 94.11C51.16 98.9 50.29 105.7 44.1 105.83C40.85 105.9 39.19 102.33 37.28 100.12C34.19 96.56 20.4 72.19 9.75999 49.11C13.67 70.53 33.77 123.28 47.85 123.28C55.12 123.28 55.08 108.84 58.8 93.35C60.5 86.27 63.9 85.42 65.6 93.92C68.78 109.83 71.55 123.29 78.35 123.29C88.99 123.29 103.31 91.16 111.2 67.52C105.96 78.24 100.89 85.07 94.81 94.1Z" fill="#E6F5FE"/>
<path d="M49.87 47.78C49.87 50.83 47.4 53.3 44.35 53.3C41.3 53.3 38.83 50.83 38.83 47.78C38.83 44.73 41.3 42.26 44.35 42.26C47.39 42.26 49.87 44.73 49.87 47.78Z" fill="#002036"/>
<path d="M48.02 49.41C48.02 50.31 47.29 51.04 46.39 51.04C45.49 51.04 44.76 50.31 44.76 49.41C44.76 48.51 45.49 47.78 46.39 47.78C47.3 47.78 48.02 48.51 48.02 49.41Z" fill="white"/>
<path d="M45.82 46.73C45.82 47.31 45.35 47.78 44.77 47.78C44.19 47.78 43.72 47.31 43.72 46.73C43.72 46.15 44.19 45.68 44.77 45.68C45.35 45.68 45.82 46.15 45.82 46.73Z" fill="white"/>
<path d="M78.93 47.78C78.93 50.83 81.4 53.3 84.45 53.3C87.5 53.3 89.97 50.83 89.97 47.78C89.97 44.73 87.5 42.26 84.45 42.26C81.4 42.26 78.93 44.73 78.93 47.78Z" fill="#002036"/>
<path d="M80.77 49.41C80.77 50.31 81.5 51.04 82.4 51.04C83.3 51.04 84.03 50.31 84.03 49.41C84.03 48.51 83.3 47.78 82.4 47.78C81.5 47.78 80.77 48.51 80.77 49.41Z" fill="white"/>
<path d="M82.98 46.73C82.98 47.31 83.45 47.78 84.03 47.78C84.61 47.78 85.08 47.31 85.08 46.73C85.08 46.15 84.61 45.68 84.03 45.68C83.45 45.68 82.98 46.15 82.98 46.73Z" fill="white"/>
<path d="M93.19 39.62C89.98 39.62 84.46 38.08 81.95 36.13" stroke="#002036" stroke-width="2.5264" stroke-miterlimit="10" stroke-linecap="round" stroke-linejoin="round"/>
<path d="M37.37 39.62C40.58 39.62 46.1 38.08 48.61 36.13" stroke="#002036" stroke-width="2.5264" stroke-miterlimit="10" stroke-linecap="round" stroke-linejoin="round"/>
<path d="M74.15 12.79C74.15 12.79 73.8 12.89 73.22 13.08C72.94 13.19 72.6 13.29 72.2 13.46C71.8 13.62 71.35 13.8 70.86 14.01C68.9 14.84 66.26 15.98 63.5 16.75C62.82 16.96 62.11 17.11 61.43 17.29C60.74 17.42 60.06 17.59 59.4 17.68C58.74 17.78 58.1 17.9 57.49 17.95C56.88 18.01 56.31 18.09 55.77 18.11C55.24 18.14 54.75 18.16 54.31 18.19C53.88 18.19 53.5 18.19 53.19 18.19C52.57 18.19 52.21 18.19 52.21 18.19C52.21 18.19 52.56 18.17 53.19 18.14C53.5 18.12 53.88 18.1 54.31 18.08C54.74 18.04 55.23 17.99 55.75 17.93C56.28 17.89 56.85 17.77 57.45 17.69C58.05 17.61 58.68 17.46 59.33 17.33C59.98 17.2 60.64 17.01 61.31 16.84C61.97 16.63 62.66 16.45 63.32 16.21C66 15.31 68.53 14.06 70.46 13.13C70.94 12.9 71.39 12.69 71.79 12.51C72.18 12.32 72.56 12.18 72.86 12.05C73.45 11.82 73.78 11.71 73.78 11.71H73.79C74.09 11.61 74.41 11.77 74.51 12.06C74.61 12.36 74.45 12.68 74.16 12.78C74.17 12.78 74.16 12.78 74.15 12.79Z" fill="#002036"/>
<path d="M29.89 14.51C29 14.44 27.91 15.26 27.24 15.79C26.3 16.53 25.71 17.38 25.17 18.43C25.14 18.49 25.23 18.54 25.26 18.48C25.83 17.56 26.66 16.79 27.52 16.15C28.26 15.59 29.34 15.36 29.98 14.72C30.07 14.65 30 14.52 29.89 14.51Z" fill="#002036"/>
<path d="M30.9 15.33C29.79 15.53 28.55 16.13 28 17.16C27.97 17.21 28.03 17.29 28.09 17.25C29.01 16.59 29.97 16.19 31.08 15.99C31.51 15.91 31.33 15.25 30.9 15.33Z" fill="#002036"/>
<path d="M29.8 90.65C29.37 90.09 28.79 89.7 28.31 89.17C27.72 88.52 27.26 87.72 27.1 86.86C27.09 86.81 27.03 86.83 27.02 86.87C26.85 88.44 28.02 90.65 29.75 90.76C29.82 90.77 29.83 90.69 29.8 90.65Z" fill="#002036"/>
<path d="M31.93 89.8C31.1 89.06 29.93 88.75 29.24 87.83C29.2 87.77 29.1 87.8 29.12 87.88C29.42 89.09 30.66 89.92 31.88 89.92C31.94 89.92 31.98 89.84 31.93 89.8Z" fill="#002036"/>
<path d="M100.15 82.26C99.65 83.26 99.48 84.38 98.96 85.4C98.46 86.38 97.74 87.21 97.15 88.14C97.14 88.16 97.16 88.19 97.19 88.18C98.81 87.08 100.57 84.37 100.46 82.35C100.45 82.19 100.22 82.1 100.15 82.26Z" fill="#002036"/>
<path d="M99.27 80.61C99.24 80.52 99.12 80.5 99.06 80.58C98.71 81.1 98.67 81.7 98.55 82.31C98.42 82.92 98.25 83.56 98.02 84.14C97.95 84.32 98.21 84.4 98.31 84.26C98.97 83.32 99.7 81.78 99.27 80.61Z" fill="#002036"/>
<path d="M89.86 10.73C88.74 9.92 87.02 10.09 85.81 10.62C85.75 10.65 85.78 10.73 85.84 10.73C86.44 10.73 87.04 10.67 87.64 10.66C88.38 10.65 89.08 10.86 89.81 10.92C89.92 10.92 89.93 10.78 89.86 10.73Z" fill="#002036"/>
<path d="M91.3 12.45C90.4 11.67 89.17 11.61 88.08 11.97C87.96 12.01 87.97 12.22 88.11 12.2C88.92 12.11 89.69 12.28 90.41 12.65C90.63 12.77 91.27 13.27 91.38 12.75C91.41 12.66 91.39 12.53 91.3 12.45Z" fill="#002036"/>
<path d="M91.39 59.45C91.39 60.96 89.01 62.19 86.08 62.19C83.15 62.19 80.77 60.96 80.77 59.45C80.77 57.94 83.15 56.71 86.08 56.71C89.01 56.71 91.39 57.93 91.39 59.45Z" fill="#F8C29E"/>
<path d="M49.03 59.45C49.03 60.96 46.65 62.19 43.72 62.19C40.79 62.19 38.41 60.96 38.41 59.45C38.41 57.94 40.79 56.71 43.72 56.71C46.65 56.71 49.03 57.93 49.03 59.45Z" fill="#F8C29E"/>
<path d="M51.09 64.99C54.79 59.45 56.9 65.45 59.48 64.76C60.58 64.47 61.53 63.25 62.69 62.87C64.2 62.38 64.91 62.65 66.28 63.34C67.42 63.91 67.98 64.55 69.34 64.23C70.72 63.91 71.42 62.63 72.78 62.2C75.63 61.31 75.85 63.03 77.56 64.99" stroke="#002036" stroke-width="1.6842" stroke-miterlimit="10" stroke-linecap="round"/>
<path d="M113.8 28.56C111.66 24.98 109.32 21.54 106.94 18.13C106.7 17.96 106.48 17.78 106.29 17.59C104.93 16.77 104.34 15.87 102.78 16.62C100.57 17.68 101.08 18.72 101.76 20.3C102.32 21.6 103.04 23.44 102.51 24.83C102.02 26.1 100.5 26.81 100.89 28.63C101.19 30.05 102.87 30.69 103.04 32.02C103.12 32.64 102.54 33.58 102.43 34.21C102.26 35.11 102.41 35.9 102.28 36.72C101.8 39.6 107.21 37.05 107.21 37.05C107.21 37.05 108 41.67 110.99 40.45C114.08 39.19 113.67 37.44 115.54 34.15C115.59 34.05 115.64 33.96 115.69 33.86C115.22 32.33 114.71 30.68 114.12 29.02C114.01 28.88 113.9 28.73 113.8 28.56Z" fill="#E6F5FE"/>
<path d="M20.71 58.38C22.33 60.61 21.7 65.6 25.81 64.81C26.57 64.66 26.91 63.85 27.65 63.62C28.68 63.29 29.03 63.8 29.98 64.05C31.52 64.47 32.48 64.68 32.43 62.53C32.38 60.51 30.72 61.1 30.16 59.51C29.71 58.21 30.56 56.28 29.56 55.16C27.78 53.17 27.68 55.28 26.63 55.97C24.99 57.06 25.05 54.59 23.56 53.88C22.33 53.3 20.41 53.36 20.35 54.78C20.31 55.62 22.45 57.52 20.16 57.43L20.71 58.38Z" fill="#E6F5FE"/>
<path d="M79.47 56.25C79.23 56.25 79.23 56.63 79.47 56.63C79.72 56.63 79.72 56.25 79.47 56.25Z" fill="#002036"/>
<path d="M81.34 55.93C80.44 55.93 80.44 57.33 81.34 57.33C82.24 57.33 82.24 55.93 81.34 55.93Z" fill="#002036"/>
<path d="M85.18 55.66C84.72 55.66 84.72 56.37 85.18 56.37C85.63 56.37 85.63 55.66 85.18 55.66Z" fill="#002036"/>
<path d="M83.73 57.07C83.03 57.07 83.03 58.16 83.73 58.16C84.43 58.16 84.43 57.07 83.73 57.07Z" fill="#002036"/>
<path d="M86.82 57.42C86.04 57.42 86.04 58.63 86.82 58.63C87.6 58.63 87.6 57.42 86.82 57.42Z" fill="#002036"/>
<path d="M88.77 55.07C88.15 55.07 88.15 56.03 88.77 56.03C89.39 56.03 89.39 55.07 88.77 55.07Z" fill="#002036"/>
<path d="M91.61 55.8C91.13 55.8 91.13 56.55 91.61 56.55C92.09 56.55 92.09 55.8 91.61 55.8Z" fill="#002036"/>
<path d="M91.39 58.2C91.19 58.2 91.19 58.51 91.39 58.51C91.59 58.51 91.59 58.2 91.39 58.2Z" fill="#002036"/>
<path d="M80.93 59.4C80.5 59.4 80.5 60.06 80.93 60.06C81.35 60.07 81.35 59.4 80.93 59.4Z" fill="#002036"/>
<path d="M79.01 57.71C78.62 57.71 78.62 58.31 79.01 58.31C79.39 58.31 79.39 57.71 79.01 57.71Z" fill="#002036"/>
<path d="M83.83 59.98C83.72 59.98 83.72 60.15 83.83 60.15C83.94 60.15 83.94 59.98 83.83 59.98Z" fill="#002036"/>
<path d="M86.08 59.42C85.88 59.42 85.88 59.73 86.08 59.73C86.28 59.74 86.28 59.42 86.08 59.42Z" fill="#002036"/>
<path d="M38.38 56.25C38.14 56.25 38.14 56.63 38.38 56.63C38.62 56.63 38.62 56.25 38.38 56.25Z" fill="#002036"/>
<path d="M40.24 55.93C39.34 55.93 39.34 57.33 40.24 57.33C41.15 57.33 41.15 55.93 40.24 55.93Z" fill="#002036"/>
<path d="M44.08 55.66C43.62 55.66 43.62 56.37 44.08 56.37C44.54 56.37 44.54 55.66 44.08 55.66Z" fill="#002036"/>
<path d="M42.63 57.07C41.93 57.07 41.93 58.16 42.63 58.16C43.33 58.16 43.33 57.07 42.63 57.07Z" fill="#002036"/>
<path d="M45.72 57.42C44.94 57.42 44.94 58.63 45.72 58.63C46.5 58.63 46.5 57.42 45.72 57.42Z" fill="#002036"/>
<path d="M47.67 55.07C47.05 55.07 47.05 56.03 47.67 56.03C48.29 56.03 48.29 55.07 47.67 55.07Z" fill="#002036"/>
<path d="M50.51 55.8C50.03 55.8 50.03 56.55 50.51 56.55C51 56.55 51 55.8 50.51 55.8Z" fill="#002036"/>
<path d="M50.3 58.2C50.1 58.2 50.1 58.51 50.3 58.51C50.49 58.51 50.49 58.2 50.3 58.2Z" fill="#002036"/>
<path d="M39.83 59.4C39.4 59.4 39.4 60.06 39.83 60.06C40.26 60.07 40.26 59.4 39.83 59.4Z" fill="#002036"/>
<path d="M37.91 57.71C37.52 57.71 37.52 58.31 37.91 58.31C38.3 58.31 38.3 57.71 37.91 57.71Z" fill="#002036"/>
<path d="M42.73 59.98C42.62 59.98 42.62 60.15 42.73 60.15C42.85 60.15 42.85 59.98 42.73 59.98Z" fill="#002036"/>
<path d="M44.99 59.42C44.79 59.42 44.79 59.73 44.99 59.73C45.19 59.74 45.19 59.42 44.99 59.42Z" fill="#002036"/>
<path d="M13.88 57.42C8.02 59.72 -11.1 82.21 11.87 101.71" stroke="#002036" stroke-width="1.6842" stroke-miterlimit="10" stroke-linecap="round" stroke-linejoin="round"/>
<path d="M16.66 58.96C16.9 60.79 12.18 63.52 12.18 63.52C12.18 63.52 7.17999 60.51 7.68999 56.21C8.17999 55.63 9.82999 53.28 13.29 52.92" fill="#C8DAEC"/>
<path d="M16.66 58.96C16.9 60.79 12.18 63.52 12.18 63.52C12.18 63.52 7.17999 60.51 7.68999 56.21C8.17999 55.63 9.82999 53.28 13.29 52.92" stroke="#002036" stroke-width="1.6842" stroke-miterlimit="10" stroke-linecap="round"/>
<path d="M11.15 101.18C8.87999 103.61 12.17 107.3 13.29 107.85C14.99 108.69 17.27 107.62 17.38 106.23C17.48 104.97 15.44 102.76 15.44 102.76C15.44 102.76 17.02 101.93 16.54 101.61C14.96 100.52 12.47 99.77 11.15 101.18Z" fill="#F3FAFF" stroke="#002036" stroke-width="1.6842" stroke-miterlimit="10"/>
<path d="M117.56 59.1C120.18 64.83 141.2 84.28 158.31 64.05" stroke="#002036" stroke-width="1.6842" stroke-miterlimit="10" stroke-linecap="round" stroke-linejoin="round"/>
<path d="M157.82 64.8C159.32 66.05 161.15 65.37 162.5 64.35C163.45 63.64 163.66 58.67 162.53 58.3C161.4 57.93 159.17 60.43 159.17 60.43C159.17 60.43 158.26 58.9 157.96 59.39C156.95 61.04 156.34 63.56 157.82 64.8Z" fill="#F3FAFF" stroke="#002036" stroke-width="1.6842" stroke-miterlimit="10"/>
<path d="M111.18 59.95C110.94 61.78 115.66 64.51 115.66 64.51C115.66 64.51 120.66 61.5 120.15 57.2C119.65 56.62 118.02 54.27 114.55 53.91" fill="#C8DAEC"/>
<path d="M111.18 59.95C110.94 61.78 115.66 64.51 115.66 64.51C115.66 64.51 120.66 61.5 120.15 57.2C119.65 56.62 118.02 54.27 114.55 53.91" stroke="#002036" stroke-width="1.6842" stroke-miterlimit="10"/>
<path d="M163.11 64.24C162.54 64.86 161.13 64.9 160.07 64.24C159.01 63.59 158.87 58.98 160.07 58.34C161.27 57.7 162.48 57.84 163.11 58.34C163.75 58.84 163.68 63.62 163.11 64.24Z" fill="#F3FAFF" stroke="#002036" stroke-width="1.5295" stroke-miterlimit="10"/>
<path d="M211.62 11.37C204.02 11.37 197.17 18.26 186.92 18.26C176.67 18.26 169.82 11.37 162.22 11.37C147.21 11.37 130.93 32.8 133.14 49.99C135.59 69.16 156.94 126.95 171.67 126.95C178.94 126.95 178.9 112.51 182.62 97.02C184.32 89.94 187.72 89.09 189.42 97.59C192.6 113.5 195.37 126.96 202.18 126.96C216.91 126.96 238.67 65.41 240.71 50C242.97 32.8 226.25 11.37 211.62 11.37Z" fill="#F3FAFF" stroke="#002036" stroke-width="1.0875" stroke-miterlimit="10"/>
<path d="M166.82 100.22C173.83 100.79 172.44 79.64 186.93 78.77C195.25 78.28 198.93 82.42 200.16 88.84C201.46 95.63 200.98 101.98 208.28 101.54C215.59 101.1 235.54 69.62 234.99 49.66C234.74 40.53 230.88 30.26 226.59 22.23C223.77 16.96 218.13 13.93 212.19 14.15C204.83 14.42 198.26 19.31 192.03 22.7C183.63 27.26 177.45 19.63 169.88 17.59C162.65 15.63 155.97 17.56 151.19 23.54C145.41 30.77 145.31 41.45 147.41 50.07C148.94 56.36 159.81 99.65 166.82 100.22Z" fill="white"/>
<path d="M186.39 27.22C191.36 27.75 195.49 26.54 200.22 25.18C204.82 23.87 209.87 23.07 214.31 25.39C223.39 30.13 227.68 41.86 229.39 51.34C230.42 57.04 231.15 62.85 230.28 68.62C230.02 70.37 229.62 72.08 229.13 73.77C232.71 65.57 235.19 56.86 234.99 49.66C234.74 40.53 230.88 30.26 226.59 22.23C223.77 16.96 218.13 13.93 212.19 14.15C204.83 14.42 198.26 19.31 192.03 22.7C183.63 27.26 177.45 19.63 169.88 17.59C169 17.35 168.13 17.17 167.27 17.05C172.16 22.41 179.37 26.47 186.39 27.22Z" fill="white"/>
<path d="M172.69 20.64C176.47 23.7 180.59 25.8 185.33 24.97C191 23.97 198.06 19.71 200.16 14.86C196.25 16.57 192 18.26 186.93 18.26C177.22 18.26 170.55 12.07 163.42 11.43C166.53 14.48 169.28 17.88 172.69 20.64Z" fill="#E6F5FE"/>
<path d="M175.39 23.56C178.44 25.24 181.24 27.66 181.52 29.29C189.37 28.62 195.85 22.67 201.25 19.44C198.52 15.69 190.44 20.51 184.37 20.51C172.75 20.51 173.39 16.72 165.67 16.72C168.36 23.05 172.34 21.88 175.39 23.56Z" fill="#BCD6E6"/>
<path d="M194.19 21.88C191.38 22.96 188.42 25.79 185.2 25.42C183.34 25.21 181.65 24.8 180.03 23.81C178.91 23.12 177.74 22.12 176.48 21.72C174.94 21.23 173.37 20.93 171.8 20.54C170.58 20.24 169.25 19.48 168.03 19.33C167.66 19.29 167.31 19.21 166.97 19.11C169.54 22.77 172.8 22.14 175.39 23.57C178.44 25.25 181.24 27.67 181.52 29.3C188.31 28.72 194.06 24.2 198.99 20.9C197.41 20.92 195.83 21.24 194.19 21.88Z" fill="#BCD6E6"/>
<path d="M218.65 97.76C215.88 101.88 208.39 107.1 202.62 105.54C196.96 104.01 196.47 96.04 195.39 91.4C194.88 89.22 194.54 85.36 192.18 84.32C189.82 83.28 186.82 83.45 184.6 84.74C180.12 87.33 176.51 92.64 175.73 97.77C175 102.56 174.13 109.36 167.94 109.49C164.69 109.56 163.03 105.99 161.12 103.78C158.04 100.22 144.25 75.85 133.6 52.77C137.51 74.19 157.61 126.94 171.69 126.94C178.96 126.94 178.92 112.5 182.64 97.01C184.34 89.93 187.74 89.08 189.44 97.58C192.62 113.49 195.39 126.95 202.2 126.95C212.84 126.95 227.16 94.82 235.05 71.18C229.79 81.9 224.72 88.73 218.65 97.76Z" fill="#E6F5FE"/>
<path d="M153.73 18.17C152.84 18.1 151.75 18.92 151.08 19.45C150.14 20.19 149.55 21.04 149.01 22.09C148.98 22.15 149.07 22.2 149.1 22.14C149.67 21.22 150.5 20.45 151.36 19.8C152.1 19.24 153.18 19.01 153.82 18.37C153.9 18.31 153.83 18.18 153.73 18.17Z" fill="#002036"/>
<path d="M154.73 18.99C153.62 19.19 152.38 19.79 151.83 20.82C151.8 20.87 151.86 20.95 151.92 20.91C152.84 20.26 153.8 19.85 154.91 19.65C155.34 19.57 155.16 18.91 154.73 18.99Z" fill="#002036"/>
<path d="M153.63 94.31C153.2 93.75 152.62 93.36 152.14 92.83C151.55 92.18 151.09 91.38 150.93 90.52C150.92 90.47 150.86 90.49 150.85 90.53C150.68 92.1 151.85 94.31 153.58 94.42C153.65 94.43 153.66 94.36 153.63 94.31Z" fill="#002036"/>
<path d="M155.76 93.46C154.93 92.72 153.76 92.42 153.07 91.5C153.03 91.44 152.93 91.47 152.95 91.55C153.25 92.76 154.49 93.59 155.71 93.59C155.77 93.58 155.81 93.5 155.76 93.46Z" fill="#002036"/>
<path d="M223.98 85.92C223.48 86.92 223.31 88.04 222.79 89.06C222.29 90.04 221.57 90.88 220.98 91.8C220.97 91.82 220.99 91.85 221.02 91.84C222.64 90.74 224.4 88.03 224.29 86.01C224.28 85.85 224.06 85.76 223.98 85.92Z" fill="#002036"/>
<path d="M223.1 84.28C223.07 84.19 222.95 84.17 222.89 84.25C222.54 84.77 222.5 85.37 222.38 85.98C222.25 86.59 222.08 87.23 221.85 87.81C221.78 87.99 222.04 88.07 222.14 87.93C222.8 86.98 223.53 85.45 223.1 84.28Z" fill="#002036"/>
<path d="M213.69 14.39C212.57 13.58 210.85 13.75 209.64 14.28C209.58 14.31 209.61 14.39 209.67 14.39C210.27 14.39 210.87 14.33 211.47 14.32C212.21 14.3 212.91 14.52 213.64 14.58C213.75 14.58 213.76 14.44 213.69 14.39Z" fill="#002036"/>
<path d="M215.13 16.11C214.23 15.33 213 15.27 211.91 15.63C211.79 15.67 211.8 15.88 211.94 15.86C212.75 15.77 213.52 15.94 214.24 16.31C214.46 16.43 215.1 16.93 215.21 16.41C215.24 16.32 215.22 16.19 215.13 16.11Z" fill="#002036"/>
<path d="M180.49 29.07C180.49 29.07 180.31 28.81 180.01 28.35C179.85 28.13 179.68 27.81 179.44 27.58C179.2 27.32 178.97 27.01 178.65 26.7C178.31 26.41 177.98 26.05 177.56 25.75C177.14 25.44 176.71 25.11 176.21 24.83C175.73 24.52 175.19 24.26 174.65 23.98C174.1 23.72 173.54 23.45 172.96 23.2C171.82 22.69 170.65 22.19 169.61 21.58C169.08 21.3 168.62 20.94 168.17 20.62C167.77 20.24 167.35 19.92 167.08 19.52C166.93 19.33 166.79 19.15 166.65 18.98C166.55 18.79 166.45 18.61 166.35 18.44C166.26 18.27 166.17 18.11 166.09 17.97C166.03 17.82 165.98 17.67 165.94 17.54C165.76 17.02 165.66 16.72 165.66 16.72C165.66 16.72 165.78 17.01 166 17.51C166.06 17.63 166.11 17.78 166.18 17.92C166.27 18.06 166.37 18.21 166.47 18.37C166.57 18.53 166.68 18.7 166.8 18.88C166.94 19.04 167.09 19.2 167.25 19.37C167.54 19.74 167.97 20.01 168.37 20.35C168.83 20.62 169.28 20.94 169.82 21.17C170.86 21.68 172.04 22.08 173.22 22.51C173.81 22.72 174.41 22.95 174.99 23.17C175.57 23.42 176.15 23.65 176.68 23.94C177.23 24.2 177.73 24.51 178.21 24.81C178.69 25.1 179.09 25.47 179.49 25.76C179.87 26.08 180.19 26.43 180.49 26.72C180.81 27.01 180.97 27.28 181.15 27.49C181.49 27.92 181.69 28.17 181.69 28.17C181.95 28.5 181.89 28.97 181.57 29.23C181.24 29.49 180.77 29.43 180.51 29.11C180.51 29.1 180.5 29.09 180.49 29.07Z" fill="#002036"/>
<path d="M177.75 27.9C177.75 27.9 177.87 27.94 178.08 28C178.29 28.06 178.63 28.18 179.02 28.28C179.41 28.35 179.85 28.49 180.42 28.53C180.97 28.61 181.61 28.63 182.3 28.61C182.99 28.58 183.75 28.5 184.53 28.32C185.32 28.17 186.13 27.89 186.97 27.58C188.63 26.93 190.32 25.99 191.95 24.96C193.58 23.92 195.17 22.79 196.7 21.77C198.23 20.76 199.71 19.87 201.11 19.36C201.8 19.1 202.48 18.97 203.07 18.91C203.37 18.9 203.65 18.9 203.91 18.92C204.17 18.97 204.4 18.98 204.61 19.05C204.81 19.12 205 19.18 205.15 19.23C205.3 19.3 205.42 19.37 205.53 19.42C205.73 19.53 205.84 19.58 205.84 19.58C205.84 19.58 205.73 19.53 205.52 19.43C205.42 19.38 205.29 19.32 205.14 19.26C204.98 19.22 204.8 19.17 204.59 19.11C204.39 19.06 204.15 19.05 203.9 19.02C203.65 19.01 203.37 19.02 203.08 19.05C202.5 19.13 201.85 19.29 201.19 19.58C199.85 20.14 198.43 21.08 196.97 22.16C195.5 23.24 193.97 24.45 192.37 25.58C190.77 26.71 189.08 27.76 187.37 28.53C186.51 28.9 185.66 29.23 184.81 29.44C183.97 29.68 183.15 29.81 182.38 29.88C181.62 29.94 180.91 29.95 180.28 29.89C179.66 29.87 179.1 29.73 178.64 29.67C178.2 29.58 177.9 29.48 177.67 29.43C177.45 29.37 177.33 29.34 177.33 29.34C176.93 29.23 176.68 28.82 176.79 28.42C176.89 28.02 177.31 27.77 177.71 27.88C177.72 27.89 177.74 27.9 177.75 27.9Z" fill="#002036"/>
<path d="M194.61 27.08C192.67 28.16 191.23 29.7 189.12 30.56C186.89 31.47 184.29 31.8 181.91 31.96C181.82 31.97 181.82 32.1 181.91 32.11C186.11 32.31 192.8 31.84 194.99 27.45C195.11 27.22 194.86 26.94 194.61 27.08Z" fill="#002036"/>
<path d="M195.26 29.39C194.81 29.57 194.52 29.95 194.16 30.25C193.77 30.58 193.37 30.89 192.98 31.22C192.93 31.26 192.95 31.36 193.02 31.38C193.52 31.46 193.95 31.26 194.37 31C194.85 30.72 195.43 30.22 195.51 29.64C195.53 29.51 195.43 29.32 195.26 29.39Z" fill="#002036"/>
<path d="M240.21 31.97C240.2 31.96 240.18 31.97 240.19 31.98C242.73 36.65 244.4 41.41 244.94 46.7C244.95 46.79 245.08 46.79 245.09 46.7C245.62 41.45 242.93 36.27 240.21 31.97Z" fill="#002036"/>
<path d="M245.77 38.58C245.5 37.42 245.13 36.51 244.19 35.77C244.17 35.75 244.13 35.77 244.15 35.8C244.67 36.83 244.94 38 245.1 39.14C245.23 40.08 245.2 41.3 245.85 42.04C245.96 42.17 246.2 42.1 246.24 41.94C246.45 40.92 246 39.59 245.77 38.58Z" fill="#002036"/>
<path d="M140.76 20.66C139.28 21.47 138.25 22.94 137.24 24.26C136.19 25.63 134.96 27.09 134.3 28.69C134.27 28.77 134.38 28.85 134.45 28.8C135.77 27.93 136.7 26.49 137.67 25.26C138.79 23.84 140.18 22.58 141.18 21.08C141.35 20.81 141.01 20.52 140.76 20.66Z" fill="#002036"/>
<path d="M138.99 20.21C137.16 21.4 135.66 23.12 134.35 24.86C134.32 24.9 134.38 24.96 134.42 24.93C136.25 23.78 137.74 22.05 139.18 20.47C139.31 20.34 139.15 20.11 138.99 20.21Z" fill="#002036"/>
<path d="M180.56 13.81C179.71 13.18 178.76 12.82 177.74 12.65C177.82 12.17 177.79 11.64 177.26 11.5C176.95 11.42 176.63 11.52 176.36 11.66C174.98 12.38 174.76 10.64 174.51 9.58C174.43 9.23 174.06 9.08 173.74 9.14C171.95 9.5 170.41 11.04 169.93 8.49C169.9 8.32 169.69 8.15 169.51 8.17C168.49 8.3 167.72 8.47 166.91 9.12C166.85 9.17 166.92 9.24 166.97 9.23C169.19 8.82 168.91 9.17 169.53 11.01C169.64 11.33 169.9 11.44 170.21 11.4C171.33 11.24 172.35 10.8 173.43 10.49C173.66 11.51 173.93 12.65 174.87 13.21C175.04 13.31 175.35 13.34 175.53 13.28C175.92 13.14 176.58 12.55 176.44 12.98C176.32 13.38 176.64 13.67 177 13.72C178.16 13.87 179 14.58 180.12 14.78C180.76 14.89 181.04 14.17 180.56 13.81Z" fill="#002036"/>
<path d="M180.41 9.8C180.38 9.67 180.21 9.56 180.08 9.61C179.39 9.89 178.69 9.97 177.95 9.99C177.65 9.28 176.91 9.09 176.17 9.28C176.13 9.29 176.14 9.35 176.18 9.35C176.97 9.35 177.29 9.63 177.45 10.39C177.48 10.52 177.61 10.62 177.74 10.61C178.48 10.58 179.17 10.4 179.88 10.23C179.9 10.67 179.99 11.14 180.26 11.48C180.36 11.6 180.58 11.56 180.65 11.43C180.93 10.87 180.53 10.35 180.41 9.8Z" fill="#002036"/>
<path d="M145.42 96.25C144.86 95.97 144.32 95.83 143.71 95.68C142.23 95.33 142.03 94.25 141.84 93.02C141.81 92.79 141.55 92.63 141.33 92.63C141.21 92.63 141.09 92.63 140.97 92.63C140.9 91.91 140.73 91.28 140.47 90.55C140.14 89.61 141.13 88.71 140.86 87.78C140.3 85.85 137.95 86.62 137.15 84.76C137.12 84.7 137 84.73 137.01 84.8C137.17 85.99 137.68 86.58 138.86 86.9C140.58 87.38 139.63 88.97 139.44 90.05C139.27 91.02 139.96 92.17 139.96 93.16C139.96 93.45 140.2 93.68 140.48 93.68C140.58 93.68 141.52 95.81 141.8 96.08C142.55 96.83 144.06 96.83 145.02 97.19C145.57 97.41 145.94 96.52 145.42 96.25Z" fill="#002036"/>
<path d="M141.36 97.19C141.11 96.04 139.73 96.07 139.31 95.09C139.27 94.99 139.09 95.04 139.1 95.15C139.15 95.62 139.33 96 139.71 96.29C139.89 96.43 140.1 96.54 140.28 96.68C140.5 96.86 140.6 97.13 140.69 97.38C140.75 97.54 140.86 97.61 141.03 97.64C141.1 97.65 141.15 97.63 141.21 97.59C141.34 97.5 141.39 97.35 141.36 97.19Z" fill="#002036"/>
<path d="M233.39 85.72C233.21 85.59 232.96 85.8 233.02 86C233.49 87.59 232.62 88.49 231.86 89.6C231.59 89.99 231.22 90.53 231.56 91.04C231.8 91.39 230.68 93.36 230.55 93.88C230.18 95.39 228.85 96.4 227.94 97.62C227.81 97.8 227.91 98.07 228.09 98.18C229.12 98.79 230.06 101.06 228.92 101.81C227.59 102.68 226.24 103.22 224.74 103.7C224.67 103.72 224.65 103.82 224.72 103.86C226.42 104.86 228.93 102.65 230.35 101.87C230.56 101.75 230.58 101.51 230.5 101.31C230.09 100.35 229.95 99.34 229.51 98.39C229.07 97.44 228.77 97.82 229.76 96.79C231.18 95.32 231.27 93.96 232.45 92.38C232.9 91.78 232.98 91.77 232.79 91.11C232.52 90.19 233.61 89.69 234 89.04C234.74 87.77 234.5 86.5 233.39 85.72Z" fill="#002036"/>
<path d="M233.89 91.95C233.01 92.72 232.2 94.55 233.4 95.11C232.55 95.83 231.82 96.86 231.08 97.64C230.87 97.87 231.14 98.21 231.41 98.07C232.5 97.49 233.67 96.26 234.19 95.13C234.25 94.99 234.22 94.78 234.03 94.75C232.36 94.51 234.01 92.95 234.37 92.32C234.55 92.01 234.15 91.73 233.89 91.95Z" fill="#002036"/>
<path d="M224.95 0.69C224.92 0.16 224.19 -0.23 223.76 0.15C222.62 1.16 222.26 2.58 221.87 4.01C221.45 5.58 221 7.58 221.49 9.17C221.64 9.65 222.36 9.77 222.66 9.37C223.45 8.29 223.63 6.88 223.95 5.6C224.33 4.02 225.05 2.33 224.95 0.69Z" fill="#002036"/>
<path d="M231.42 5.45C230.33 5.85 229.47 6.61 228.56 7.32C227.59 8.08 226.61 8.91 225.75 9.79C225.5 10.05 225.76 10.55 226.12 10.48C227.31 10.26 228.3 9.59 229.26 8.87C230.24 8.13 231.25 7.24 232 6.27C232.32 5.86 231.91 5.27 231.42 5.45Z" fill="#002036"/>
<path d="M236.95 9.74C234.15 10.13 231.75 11.62 228.85 11.72C228.14 11.74 228.02 12.63 228.44 13.05C229.59 14.18 231.4 13.85 232.81 13.5C234.56 13.06 236.36 12.35 237.63 11.03C238.12 10.54 237.61 9.65 236.95 9.74Z" fill="#002036"/>
<path d="M135.72 55.01C129.86 57.31 110.74 79.8 133.71 99.3" stroke="#002036" stroke-width="1.6842" stroke-miterlimit="10" stroke-linecap="round" stroke-linejoin="round"/>
<path d="M138.51 56.54C138.75 58.37 134.03 61.1 134.03 61.1C134.03 61.1 129.03 58.09 129.54 53.79C130.03 53.21 131.67 50.86 135.14 50.5" fill="#D7E6EE"/>
<path d="M138.51 56.54C138.75 58.37 134.03 61.1 134.03 61.1C134.03 61.1 129.03 58.09 129.54 53.79C130.03 53.21 131.67 50.86 135.14 50.5" stroke="#002036" stroke-width="1.6842" stroke-miterlimit="10"/>
<path d="M133 98.76C130.73 101.19 134.03 104.88 135.14 105.43C136.84 106.27 139.12 105.2 139.23 103.81C139.33 102.55 137.29 100.34 137.29 100.34C137.29 100.34 138.87 99.51 138.39 99.19C136.8 98.1 134.32 97.35 133 98.76Z" fill="#F3FAFF" stroke="#002036" stroke-width="1.6842" stroke-miterlimit="10"/>
<path d="M236.65 57.85C242.51 60.15 261.63 82.64 238.66 102.14" stroke="#002036" stroke-width="1.6842" stroke-miterlimit="10" stroke-linecap="round" stroke-linejoin="round"/>
<path d="M233.87 59.39C233.63 61.22 238.35 63.95 238.35 63.95C238.35 63.95 243.35 60.94 242.84 56.64C242.34 56.06 240.71 53.71 237.24 53.35" fill="#D7E6EE"/>
<path d="M233.87 59.39C233.63 61.22 238.35 63.95 238.35 63.95C238.35 63.95 243.35 60.94 242.84 56.64C242.34 56.06 240.71 53.71 237.24 53.35" stroke="#002036" stroke-width="1.6842" stroke-miterlimit="10"/>
<path d="M239.38 101.61C241.65 104.04 238.36 107.73 237.24 108.28C235.54 109.12 233.26 108.05 233.15 106.66C233.05 105.4 235.09 103.19 235.09 103.19C235.09 103.19 233.51 102.36 233.99 102.04C235.57 100.95 238.06 100.2 239.38 101.61Z" fill="#F3FAFF" stroke="#002036" stroke-width="1.6842" stroke-miterlimit="10"/>
<path d="M171.12 47.07C171.12 50.4 168.42 53.1 165.09 53.1C161.76 53.1 159.06 50.4 159.06 47.07C159.06 43.74 161.76 41.04 165.09 41.04C168.42 41.04 171.12 43.74 171.12 47.07Z" fill="#002036"/>
<path d="M169.11 48.85C169.11 49.83 168.31 50.63 167.33 50.63C166.35 50.63 165.55 49.83 165.55 48.85C165.55 47.87 166.34 47.07 167.33 47.07C168.32 47.07 169.11 47.87 169.11 48.85Z" fill="white"/>
<path d="M166.7 45.92C166.7 46.55 166.19 47.07 165.55 47.07C164.92 47.07 164.4 46.56 164.4 45.92C164.4 45.29 164.91 44.77 165.55 44.77C166.19 44.78 166.7 45.29 166.7 45.92Z" fill="white"/>
<path d="M202.85 47.07C202.85 50.4 205.55 53.1 208.88 53.1C212.21 53.1 214.91 50.4 214.91 47.07C214.91 43.74 212.21 41.04 208.88 41.04C205.55 41.04 202.85 43.74 202.85 47.07Z" fill="#002036"/>
<path d="M204.86 48.85C204.86 49.83 205.66 50.63 206.64 50.63C207.62 50.63 208.42 49.83 208.42 48.85C208.42 47.87 207.62 47.07 206.64 47.07C205.66 47.07 204.86 47.87 204.86 48.85Z" fill="white"/>
<path d="M207.27 45.92C207.27 46.55 207.78 47.07 208.42 47.07C209.05 47.07 209.57 46.56 209.57 45.92C209.57 45.29 209.06 44.77 208.42 44.77C207.78 44.78 207.27 45.29 207.27 45.92Z" fill="white"/>
<path d="M218.98 35.49C216.7 27.59 209.41 28.75 209.41 28.75" stroke="#002036" stroke-width="1.6312" stroke-miterlimit="10" stroke-linecap="round" stroke-linejoin="round"/>
<path d="M153.39 35.49C155.67 27.59 162.96 28.75 162.96 28.75" stroke="#002036" stroke-width="1.6312" stroke-miterlimit="10" stroke-linecap="round" stroke-linejoin="round"/>
<path d="M216.46 59.8C216.46 61.45 213.86 62.79 210.66 62.79C207.46 62.79 204.86 61.45 204.86 59.8C204.86 58.15 207.46 56.81 210.66 56.81C213.86 56.81 216.46 58.15 216.46 59.8Z" fill="#F8C2C0"/>
<path d="M170.21 59.8C170.21 61.45 167.61 62.79 164.41 62.79C161.21 62.79 158.61 61.45 158.61 59.8C158.61 58.15 161.21 56.81 164.41 56.81C167.61 56.81 170.21 58.15 170.21 59.8Z" fill="#F8C2C0"/>
<path d="M186.83 72.32C186.17 72.47 185.55 72.56 184.87 72.57C184.68 72.57 183.92 72.56 183.87 72.88C183.8 73.32 184.35 73.62 184.71 73.72C185.51 73.93 186.4 73.91 187.18 73.61C187.97 73.3 187.69 72.13 186.83 72.32Z" fill="#002036"/>
<path d="M203.54 56.39C203.27 56.39 203.27 56.8 203.54 56.8C203.81 56.81 203.81 56.39 203.54 56.39Z" fill="#002036"/>
<path d="M205.58 56.04C204.59 56.04 204.59 57.57 205.58 57.57C206.57 57.57 206.57 56.04 205.58 56.04Z" fill="#002036"/>
<path d="M209.77 55.74C209.27 55.74 209.27 56.51 209.77 56.51C210.27 56.52 210.27 55.74 209.77 55.74Z" fill="#002036"/>
<path d="M208.19 57.28C207.43 57.28 207.43 58.47 208.19 58.47C208.95 58.47 208.95 57.28 208.19 57.28Z" fill="#002036"/>
<path d="M211.56 57.67C210.71 57.67 210.71 58.99 211.56 58.99C212.41 58.99 212.41 57.67 211.56 57.67Z" fill="#002036"/>
<path d="M213.69 55.1C213.01 55.1 213.01 56.15 213.69 56.15C214.37 56.15 214.37 55.1 213.69 55.1Z" fill="#002036"/>
<path d="M216.79 55.9C216.26 55.9 216.26 56.72 216.79 56.72C217.32 56.72 217.32 55.9 216.79 55.9Z" fill="#002036"/>
<path d="M216.55 58.52C216.33 58.52 216.33 58.85 216.55 58.85C216.77 58.85 216.77 58.52 216.55 58.52Z" fill="#002036"/>
<path d="M205.13 59.83C204.66 59.83 204.66 60.55 205.13 60.55C205.6 60.56 205.6 59.83 205.13 59.83Z" fill="#002036"/>
<path d="M203.04 57.98C202.62 57.98 202.62 58.63 203.04 58.63C203.46 58.64 203.46 57.98 203.04 57.98Z" fill="#002036"/>
<path d="M208.3 60.46C208.18 60.46 208.18 60.65 208.3 60.65C208.42 60.65 208.42 60.46 208.3 60.46Z" fill="#002036"/>
<path d="M210.76 59.85C210.54 59.85 210.54 60.19 210.76 60.19C210.98 60.19 210.98 59.85 210.76 59.85Z" fill="#002036"/>
<path d="M158.68 56.39C158.41 56.39 158.41 56.8 158.68 56.8C158.95 56.81 158.95 56.39 158.68 56.39Z" fill="#002036"/>
<path d="M160.72 56.04C159.73 56.04 159.73 57.57 160.72 57.57C161.71 57.57 161.71 56.04 160.72 56.04Z" fill="#002036"/>
<path d="M164.91 55.74C164.41 55.74 164.41 56.51 164.91 56.51C165.41 56.52 165.41 55.74 164.91 55.74Z" fill="#002036"/>
<path d="M163.33 57.28C162.57 57.28 162.57 58.47 163.33 58.47C164.09 58.47 164.09 57.28 163.33 57.28Z" fill="#002036"/>
<path d="M166.7 57.67C165.85 57.67 165.85 58.99 166.7 58.99C167.55 58.99 167.55 57.67 166.7 57.67Z" fill="#002036"/>
<path d="M168.83 55.1C168.15 55.1 168.15 56.15 168.83 56.15C169.51 56.15 169.51 55.1 168.83 55.1Z" fill="#002036"/>
<path d="M171.93 55.9C171.4 55.9 171.4 56.72 171.93 56.72C172.46 56.72 172.46 55.9 171.93 55.9Z" fill="#002036"/>
<path d="M171.69 58.52C171.47 58.52 171.47 58.85 171.69 58.85C171.91 58.85 171.91 58.52 171.69 58.52Z" fill="#002036"/>
<path d="M160.27 59.83C159.81 59.83 159.81 60.55 160.27 60.55C160.74 60.56 160.74 59.83 160.27 59.83Z" fill="#002036"/>
<path d="M158.18 57.98C157.76 57.98 157.76 58.63 158.18 58.63C158.6 58.64 158.6 57.98 158.18 57.98Z" fill="#002036"/>
<path d="M163.44 60.46C163.32 60.46 163.32 60.65 163.44 60.65C163.56 60.65 163.56 60.46 163.44 60.46Z" fill="#002036"/>
<path d="M165.89 59.85C165.67 59.85 165.67 60.19 165.89 60.19C166.12 60.19 166.12 59.85 165.89 59.85Z" fill="#002036"/>
<path d="M190.26 63.53C190.26 67.24 188.4 70.24 186.11 70.24C183.82 70.24 181.96 67.23 181.96 63.53C181.96 59.82 183.82 56.82 186.11 56.82C188.4 56.81 190.26 59.82 190.26 63.53Z" fill="#002036"/>
</g>
<defs>
<clipPath id="clip0">
<rect width="250.53" height="130.28" fill="white"/>
</clipPath>
</defs>
</svg>
